<svg version="1.1" xmlns="http://www.w3.org/2000/svg" xmlns:xlink="http://www.w3.org/1999/xlink" width="14.5" height="12.5" viewBox="0,0,14.5,12.5"><g transform="translate(-232.75,-173.75)"><g data-paper-data="{&quot;isPaintingLayer&quot;:true}" fill="#000000" fill-rule="evenodd" stroke="#000000" stroke-width="0.5" stroke-linecap="round" stroke-linejoin="round" stroke-miterlimit="10" stroke-dasharray="" stroke-dashoffset="0" style="mix-blend-mode: normal"><path d="M242.57872,181.2102c-0.95909,0.95909 -1.6658,1.45126 -2.22106,1.64056c-0.16406,-0.50479 -0.44169,-0.97171 -0.8329,-1.36292c-0.40383,-0.39121 -0.87076,-0.66884 -1.37554,-0.84552c0.20191,-0.55526 0.69408,-1.26197 1.64056,-2.20844c2.27154,-2.28416 6.30983,-5.0731 7.07963,-4.3033c0.7698,0.7698 -2.01915,4.80809 -4.29068,7.07963zM238.39124,185.41201c-0.37555,0.36286 -0.86013,0.55014 -1.34472,0.57355v0.01171h-0.12115c-3.2467,0.11705 -4.66411,-3.55832 -3.54957,-3.17206c1.46586,0.50332 2.06069,-0.2224 2.0837,-0.24581c0.81168,-0.77253 2.12005,-0.77253 2.93172,0c0.81168,0.78424 0.81168,2.06008 0,2.83261z"/></g></g></svg>