<svg version="1.1" xmlns="http://www.w3.org/2000/svg" xmlns:xlink="http://www.w3.org/1999/xlink" width="55.95275" height="55.95275" viewBox="0,0,55.95275,55.95275"><g transform="translate(-212.02364,-152.02363)"><g data-paper-data="{&quot;isPaintingLayer&quot;:true}" fill-rule="nonzero" stroke="none" stroke-linecap="butt" stroke-linejoin="miter" stroke-miterlimit="10" stroke-dasharray="" stroke-dashoffset="0" style="mix-blend-mode: normal"><path d="" fill="#000000" stroke-width="1"/><path d="" fill="#000000" stroke-width="1"/><path d="M220.38478,194.33167c-1.0127,-1.0127 -1.51903,-2.26754 -1.51903,-3.76454v-21.13424c0,-1.49699 0.50633,-2.75189 1.51903,-3.76454c1.0127,-1.0127 2.26754,-1.51903 3.76454,-1.51903h21.13424c1.49699,0 2.75189,0.50633 3.76454,1.51903c1.0127,1.0127 1.51903,2.26754 1.51903,3.76454v5.28355l10.56712,-5.54774v21.6626l-10.56712,-5.54774v5.28355c0,1.49699 -0.50633,2.75189 -1.51903,3.76454c-1.0127,1.0127 -2.26754,1.51903 -3.76454,1.51903h-21.13424c-1.49699,0 -2.75189,-0.50633 -3.76454,-1.51903z" fill="#000000" stroke-width="1"/><path d="M212.02365,207.97638v-55.95275h55.95275v55.95275z" fill="none" stroke-width="0"/></g></g></svg>