<svg version="1.1" xmlns="http://www.w3.org/2000/svg" xmlns:xlink="http://www.w3.org/1999/xlink" width="40.6" height="40.6" viewBox="0,0,40.6,40.6"><g transform="translate(-219.7,-159.7)"><g data-paper-data="{&quot;isPaintingLayer&quot;:true}" fill-rule="nonzero" stroke-linejoin="miter" stroke-miterlimit="10" stroke-dasharray="" stroke-dashoffset="0" style="mix-blend-mode: normal"><path d="M219.7,200.3v-40.6h40.6v40.6z" fill="none" stroke="none" stroke-width="0" stroke-linecap="butt"/><path d="M229.45559,170c4.35148,0 12.37661,0 14.66667,0c1.60536,0 2.47619,1.25179 2.47619,2.85714c0,2.39525 0,10.28724 0,14.47619c0,1.46393 -0.63131,2.66667 -2.09524,2.66667c-2.33134,0 -11.60271,0 -15.80952,0c-0.77416,0 -2.02506,-0.96497 -2.11408,-1.8147c-0.06532,-0.62352 -0.02463,-10.12382 0.00166,-15.13777c0.00954,-1.819 -0.3343,-3.04753 2.87432,-3.04753z" fill="#000000" stroke="#000000" stroke-width="3" stroke-linecap="butt"/><path d="M247.16988,175.22449c0,0 4.17646,-2.33231 5.25237,-2.93314c0.58053,-0.32419 1.03334,0.28183 1.03334,0.94675c0,1.88228 0,9.93409 0,13.33333c0,0.69494 -0.5273,1.17951 -1.10918,0.79956c-1.09198,-0.71302 -5.17654,-3.38006 -5.17654,-3.38006z" fill="#000000" stroke="#000000" stroke-width="3" stroke-linecap="round"/></g></g></svg>