<svg version="1.1" xmlns="http://www.w3.org/2000/svg" xmlns:xlink="http://www.w3.org/1999/xlink" width="71.2" height="71.2" viewBox="0,0,71.2,71.2"><g transform="translate(-204.4,-144.4)"><g data-paper-data="{&quot;isPaintingLayer&quot;:true}" fill-rule="nonzero" stroke-linecap="butt" stroke-linejoin="miter" stroke-miterlimit="10" stroke-dasharray="" stroke-dashoffset="0" style="mix-blend-mode: normal"><path d="M249.66617,178.52758c5.30686,-2.39808 11.55293,-0.04004 13.95101,5.26682c2.39808,5.30686 0.04005,11.55293 -5.26681,13.95101c-5.30686,2.39808 -11.55293,0.04004 -13.95101,-5.26682c-2.39808,-5.30686 -0.04005,-11.55293 5.26681,-13.95101zM256.01689,187.46026c0.71942,1.59205 2.59325,2.29947 4.1853,1.58005c1.59206,-0.71942 2.29947,-2.59325 1.58005,-4.1853c-0.71942,-1.59205 -2.59325,-2.29947 -4.18531,-1.58005c-1.59206,0.71942 -2.29946,2.59325 -1.58004,4.1853z" fill="#000000" stroke="none" stroke-width="none"/><path d="M215.72957,198.88259l28.89171,-12.05837l3.90789,8.64801l-24.98317,11.28946l-6.2577,-2.07936z" fill="#000000" stroke="none" stroke-width="0"/><path d="M240.58152,198.36938l4.22792,-1.91052c0,0 1.91773,4.24387 2.51842,5.57316c0.55987,1.23898 -0.44019,2.28171 -1.67917,2.84158c-0.97547,0.4408 -2.02111,0.2366 -2.46191,-0.73887c-0.59147,-1.3089 -2.60526,-5.76535 -2.60526,-5.76535z" fill="#000000" stroke="none" stroke-width="0"/><path d="M234.45594,198.12895l4.22793,-1.91053c0,0 1.91772,4.24388 2.51841,5.57317c0.55987,1.23898 -0.44019,2.28171 -1.67917,2.84158c-0.97547,0.4408 -2.0211,0.23659 -2.4619,-0.73888c-0.59147,-1.3089 -2.60527,-5.76534 -2.60527,-5.76534z" fill="#000000" stroke="none" stroke-width="0"/><path d="M230.86727,202.9905l4.22792,-1.91053c0,0 1.91774,4.24388 2.51843,5.57318c0.55987,1.23898 -0.4402,2.28171 -1.67918,2.84158c-0.97547,0.4408 -2.02112,0.2366 -2.46192,-0.73887c-0.59147,-1.3089 -2.60525,-5.76535 -2.60525,-5.76535z" fill="#000000" stroke="none" stroke-width="0"/><path d="M225.15741,204.18216l4.22791,-1.91053c0,0 1.91774,4.24388 2.51843,5.57317c0.55987,1.23898 -0.4402,2.2817 -1.67918,2.84157c-0.97547,0.4408 -2.02111,0.2366 -2.46191,-0.73888c-0.59147,-1.3089 -2.60525,-5.76534 -2.60525,-5.76534z" fill="#000000" stroke="none" stroke-width="0"/><path d="M204.4,215.6v-71.2h71.2v71.2z" fill="none" stroke="none" stroke-width="0"/><g data-paper-data="{&quot;index&quot;:null}" fill="#000000" stroke="#000000" stroke-width="0"><path d="M240.61791,155.03802v20.30107h-9.00401v-20.30107z"/><path d="M246.06771,158.21006h-19.66666l9.78777,-12.37097z"/></g></g></g></svg>