<svg version="1.1" xmlns="http://www.w3.org/2000/svg" xmlns:xlink="http://www.w3.org/1999/xlink" width="26.13044" height="26.13044" viewBox="0,0,26.13044,26.13044"><g transform="translate(-226.93478,-166.93478)"><g data-paper-data="{&quot;isPaintingLayer&quot;:true}" fill-rule="nonzero" stroke="none" stroke-linecap="butt" stroke-linejoin="miter" stroke-miterlimit="10" stroke-dasharray="" stroke-dashoffset="0" style="mix-blend-mode: normal"><path d="M239,190.5c-1.38333,0 -2.68333,-0.2625 -3.9,-0.7875c-1.21667,-0.525 -2.275,-1.2375 -3.175,-2.1375c-0.9,-0.9 -1.6125,-1.95833 -2.1375,-3.175c-0.525,-1.21667 -0.7875,-2.51667 -0.7875,-3.9c0,-1.38333 0.2625,-2.68333 0.7875,-3.9c0.525,-1.21667 1.2375,-2.275 2.1375,-3.175c0.9,-0.9 1.95833,-1.6125 3.175,-2.1375c1.21667,-0.525 2.51667,-0.7875 3.9,-0.7875c0.71667,0 1.40833,0.07083 2.075,0.2125c0.66667,0.14167 1.30833,0.34583 1.925,0.6125v2.25c-0.58333,-0.33333 -1.2125,-0.59583 -1.8875,-0.7875c-0.675,-0.19167 -1.37917,-0.2875 -2.1125,-0.2875c-2.21667,0 -4.10417,0.77917 -5.6625,2.3375c-1.55833,1.55833 -2.3375,3.44583 -2.3375,5.6625c0,2.21667 0.77917,4.10417 2.3375,5.6625c1.55833,1.55833 3.44583,2.3375 5.6625,2.3375c2.21667,0 4.10417,-0.77917 5.6625,-2.3375c1.55833,-1.55833 2.3375,-3.44583 2.3375,-5.6625c0,-0.53333 -0.05417,-1.05 -0.1625,-1.55c-0.10833,-0.5 -0.25417,-0.98333 -0.4375,-1.45h2.15c0.15,0.48333 0.2625,0.97083 0.3375,1.4625c0.075,0.49167 0.1125,1.00417 0.1125,1.5375c0,1.38333 -0.2625,2.68333 -0.7875,3.9c-0.525,1.21667 -1.2375,2.275 -2.1375,3.175c-0.9,0.9 -1.95833,1.6125 -3.175,2.1375c-1.21667,0.525 -2.51667,0.7875 -3.9,0.7875zM247,175.5v-2h-2v-2h2v-2h2v2h2v2h-2v2zM242.5,179.5c0.41667,0 0.77083,-0.14583 1.0625,-0.4375c0.29167,-0.29167 0.4375,-0.64583 0.4375,-1.0625c0,-0.41667 -0.14583,-0.77083 -0.4375,-1.0625c-0.29167,-0.29167 -0.64583,-0.4375 -1.0625,-0.4375c-0.41667,0 -0.77083,0.14583 -1.0625,0.4375c-0.29167,0.29167 -0.4375,0.64583 -0.4375,1.0625c0,0.41667 0.14583,0.77083 0.4375,1.0625c0.29167,0.29167 0.64583,0.4375 1.0625,0.4375zM235.5,179.5c0.41667,0 0.77083,-0.14583 1.0625,-0.4375c0.29167,-0.29167 0.4375,-0.64583 0.4375,-1.0625c0,-0.41667 -0.14583,-0.77083 -0.4375,-1.0625c-0.29167,-0.29167 -0.64583,-0.4375 -1.0625,-0.4375c-0.41667,0 -0.77083,0.14583 -1.0625,0.4375c-0.29167,0.29167 -0.4375,0.64583 -0.4375,1.0625c0,0.41667 0.14583,0.77083 0.4375,1.0625c0.29167,0.29167 0.64583,0.4375 1.0625,0.4375zM239,186c1.13333,0 2.1625,-0.32083 3.0875,-0.9625c0.925,-0.64167 1.59583,-1.4875 2.0125,-2.5375h-10.2c0.41667,1.05 1.0875,1.89583 2.0125,2.5375c0.925,0.64167 1.95417,0.9625 3.0875,0.9625z" fill="#000000" stroke-width="1"/><path d="M234.40214,179.09786c-0.29167,-0.29167 -0.45214,-0.68119 -0.45214,-1.09786c0,-0.41667 0.16048,-0.80619 0.45214,-1.09786c0.29167,-0.29167 0.68119,-0.45214 1.09786,-0.45214c0.41667,0 0.80619,0.16048 1.09786,0.45214c0.29167,0.29167 0.45214,0.68119 0.45214,1.09786c0,0.41667 -0.16048,0.80619 -0.45214,1.09786c-0.29167,0.29167 -0.68119,0.45214 -1.09786,0.45214c-0.41667,0 -0.80619,-0.16048 -1.09786,-0.45214z" data-paper-data="{&quot;noHover&quot;:false,&quot;origItem&quot;:[&quot;Path&quot;,{&quot;applyMatrix&quot;:true,&quot;segments&quot;:[[[235.5,179.5],[-0.41667,0],[0.41667,0]],[[236.5625,179.0625],[-0.29167,0.29167],[0.29167,-0.29167]],[[237,178],[0,0.41667],[0,-0.41667]],[[236.5625,176.9375],[0.29167,0.29167],[-0.29167,-0.29167]],[[235.5,176.5],[0.41667,0],[-0.41667,0]],[[234.4375,176.9375],[0.29167,-0.29167],[-0.29167,0.29167]],[[234,178],[0,-0.41667],[0,0.41667]],[[234.4375,179.0625],[-0.29167,-0.29167],[0.29167,0.29167]]],&quot;closed&quot;:true,&quot;fillColor&quot;:[0.12157,0.12157,0.12157,1]}]}" fill="#000000" stroke-width="0.5"/><path d="M241.40214,179.09786c-0.29167,-0.29167 -0.45214,-0.68119 -0.45214,-1.09786c0,-0.41667 0.16048,-0.80619 0.45214,-1.09786c0.29167,-0.29167 0.68119,-0.45214 1.09786,-0.45214c0.41667,0 0.80619,0.16048 1.09786,0.45214c0.29167,0.29167 0.45214,0.68119 0.45214,1.09786c0,0.41667 -0.16048,0.80619 -0.45214,1.09786c-0.29167,0.29167 -0.68119,0.45214 -1.09786,0.45214c-0.41667,0 -0.80619,-0.16048 -1.09786,-0.45214z" data-paper-data="{&quot;noHover&quot;:false,&quot;origItem&quot;:[&quot;Path&quot;,{&quot;applyMatrix&quot;:true,&quot;segments&quot;:[[[242.5,179.5],[-0.41667,0],[0.41667,0]],[[243.5625,179.0625],[-0.29167,0.29167],[0.29167,-0.29167]],[[244,178],[0,0.41667],[0,-0.41667]],[[243.5625,176.9375],[0.29167,0.29167],[-0.29167,-0.29167]],[[242.5,176.5],[0.41667,0],[-0.41667,0]],[[241.4375,176.9375],[0.29167,-0.29167],[-0.29167,0.29167]],[[241,178],[0,-0.41667],[0,0.41667]],[[241.4375,179.0625],[-0.29167,-0.29167],[0.29167,0.29167]]],&quot;closed&quot;:true,&quot;fillColor&quot;:[0.12157,0.12157,0.12157,1]}]}" fill="#000000" stroke-width="0.5"/><path d="M235.86405,185.04986c-0.925,-0.64167 -1.59468,-1.51609 -2.01134,-2.56609h10.29459c-0.41667,1.05 -1.08634,1.92442 -2.01134,2.56609c-0.925,0.64167 -2.00262,1.00014 -3.13595,1.00014c-1.13333,0 -2.21095,-0.35848 -3.13595,-1.00014z" data-paper-data="{&quot;noHover&quot;:false,&quot;origItem&quot;:[&quot;Path&quot;,{&quot;applyMatrix&quot;:true,&quot;segments&quot;:[[[239,186],[-1.13333,0],[1.13333,0]],[[242.0875,185.0375],[-0.925,0.64167],[0.925,-0.64167]],[[244.1,182.5],[-0.41667,1.05],[0,0]],[[233.9,182.5],[0,0],[0.41667,1.05]],[[235.9125,185.0375],[-0.925,-0.64167],[0.925,0.64167]]],&quot;closed&quot;:true,&quot;fillColor&quot;:[0.12157,0.12157,0.12157,1]}]}" fill="#000000" stroke-width="0.5"/><path d="M226.93478,193.06522v-26.13044h26.13044v26.13044z" fill="none" stroke-width="0"/></g></g></svg>