<svg version="1.1" xmlns="http://www.w3.org/2000/svg" xmlns:xlink="http://www.w3.org/1999/xlink" width="71.2" height="71.2" viewBox="0,0,71.2,71.2"><g transform="translate(-204.4,-144.4)"><g data-paper-data="{&quot;isPaintingLayer&quot;:true}" fill-rule="nonzero" stroke="none" stroke-linecap="butt" stroke-linejoin="miter" stroke-miterlimit="10" stroke-dasharray="" stroke-dashoffset="0" style="mix-blend-mode: normal"><path d="M216.19977,179.63929c-6.31734,-6.31734 -6.31734,-16.55975 0,-22.8771c6.31734,-6.31734 16.55975,-6.31734 22.87709,0c6.31734,6.31734 6.31734,16.55974 0,22.87709c-6.31734,6.31734 -16.55975,6.31735 -22.87709,0zM225.57938,165.68425c1.89519,-1.89519 1.89519,-4.96793 0,-6.86312c-1.89519,-1.89519 -4.96794,-1.8952 -6.86313,0c-1.89519,1.89519 -1.89519,4.96794 0,6.86313c1.89519,1.89519 4.96793,1.89519 6.86312,0z" fill="#000000" stroke-width="NaN"/><path d="M232.61539,180.61026l8.52041,-8.52041l26.22733,25.83701l1.17511,10.04895l-9.3513,-1.32839l-1.45811,-1.32201l-2.06984,-1.89781l-6.61735,0.00491l-0.2081,-6.46237l-6.86343,-0.1807l0.35223,-6.02828l-7.10076,-0.94263l0.94101,-5.67322z" fill="#000000" stroke-width="0"/><path d="M275.6,215.6h-71.2v-71.2h71.2c0,0 0,26.9261 0,39.35c0,11.17739 0,31.85 0,31.85z" fill="none" stroke-width="0"/></g></g></svg>