<svg version="1.1" xmlns="http://www.w3.org/2000/svg" xmlns:xlink="http://www.w3.org/1999/xlink" width="71.2" height="71.2" viewBox="0,0,71.2,71.2"><g transform="translate(-204.4,-144.4)"><g data-paper-data="{&quot;isPaintingLayer&quot;:true}" fill-rule="nonzero" stroke="none" stroke-linecap="butt" stroke-linejoin="miter" stroke-miterlimit="10" stroke-dasharray="" stroke-dashoffset="0" style="mix-blend-mode: normal"><path d="M244.29711,157.381c5.39499,-5.39499 14.14198,-5.39499 19.53697,0c5.39499,5.39499 5.39499,14.14198 0,19.53697c-5.39499,5.39499 -14.14198,5.39499 -19.53697,0c-5.39499,-5.39499 -5.39499,-14.14198 0,-19.53697zM256.21467,165.39116c1.61849,1.61849 4.2426,1.61849 5.86109,0c1.61849,-1.61849 1.61849,-4.2426 0,-5.86109c-1.61849,-1.61849 -4.2426,-1.61849 -5.86109,0c-1.61849,1.61849 -1.61849,4.2426 0,5.86109z" fill="#000000" stroke-width="none"/><path d="M212.11968,198.03379l29.833,-28.14913l8.79163,8.79163l-25.39806,25.39806l-8.63228,0.34694z" fill="#000000" stroke-width="0"/><path d="M242.34341,185.90497l4.29813,-4.29813c0,0 4.31435,4.31435 5.66572,5.66572c1.25955,1.25955 0.51626,3.0004 -0.74329,4.25995c-0.99167,0.99167 -2.3678,1.22523 -3.35947,0.23356c-1.33064,-1.33064 -5.86109,-5.86109 -5.86109,-5.86109z" fill="#000000" stroke-width="0"/><path d="M234.72399,188.44478l4.29814,-4.29814c0,0 4.31435,4.31435 5.66572,5.66572c1.25955,1.25955 0.51626,3.0004 -0.74329,4.25995c-0.99167,0.99167 -2.3678,1.22523 -3.35947,0.23355c-1.33064,-1.33064 -5.86109,-5.86109 -5.86109,-5.86109z" fill="#000000" stroke-width="0"/><path d="M232.57493,196.0642l4.29813,-4.29814c0,0 4.31435,4.31435 5.66572,5.66572c1.25955,1.25955 0.51626,3.0004 -0.74329,4.25995c-0.99167,0.99167 -2.3678,1.22523 -3.35948,0.23355c-1.33064,-1.33064 -5.86109,-5.86109 -5.86109,-5.86109z" fill="#000000" stroke-width="0"/><path d="M226.12773,200.16696l4.29814,-4.29813c0,0 4.31435,4.31435 5.66572,5.66572c1.25955,1.25955 0.51626,3.0004 -0.74329,4.25995c-0.99167,0.99167 -2.3678,1.22523 -3.35947,0.23355c-1.33064,-1.33064 -5.86109,-5.86109 -5.86109,-5.86109z" fill="#000000" stroke-width="0"/><path d="M204.4,215.6v-71.2h71.2v71.2z" fill="none" stroke-width="0"/></g></g></svg>