<svg version="1.1" xmlns="http://www.w3.org/2000/svg" xmlns:xlink="http://www.w3.org/1999/xlink" width="37" height="37" viewBox="0,0,37,37"><g transform="translate(-221.5,-161.5)"><g data-paper-data="{&quot;isPaintingLayer&quot;:true}" fill="none" fill-rule="nonzero" stroke-linejoin="miter" stroke-miterlimit="10" stroke-dasharray="" stroke-dashoffset="0" style="mix-blend-mode: normal"><path d="M235.6301,179.00036c-0.25819,0.42141 -0.50952,0.83161 -0.7351,1.1998c-0.53964,0.88078 -1.30238,1.26474 -1.97319,0.85375c-1.17538,-0.72014 -5.85971,-3.59016 -7.90747,-4.8448c-0.59425,-0.36409 -0.60842,-1.17654 0.16443,-2.43795c0.77285,-1.26141 1.4583,-2.47479 2.22298,-3.71656c0.80903,-1.31378 1.49038,-2.25909 2.50678,-1.63635c2.09085,1.28103 6.66075,4.08095 7.81961,4.79097c0.76899,0.47115 0.47138,1.59745 -0.14725,2.60715c-0.16535,0.26988 -0.39592,0.64621 -0.66135,1.07942" stroke="#000000" stroke-width="2" stroke-linecap="butt"/><path d="M244.45828,181.26736c0.11135,-0.18461 0.22391,-0.3696 0.33821,-0.55524c0.80898,-1.31381 1.48905,-2.2599 2.48807,-1.64781c2.05507,1.25912 6.54679,4.01113 7.68583,4.709c0.75584,0.46309 0.45334,1.58639 -0.16529,2.59609c-0.54763,0.89381 -1.81056,2.95512 -2.68589,4.3838c-0.53964,0.88078 -1.29582,1.26876 -1.95515,0.8648c-1.15527,-0.70782 -5.75946,-3.52874 -7.77219,-4.76191c-0.58408,-0.35786 -0.59188,-1.16641 0.18097,-2.42782c0.27515,-0.4491 0.53932,-0.89205 0.79996,-1.33235" stroke="#000000" stroke-width="2" stroke-linecap="butt"/><path d="M234.78262,177.03382l10.48801,6.42586" stroke="#000000" stroke-width="2" stroke-linecap="round"/><path d="M221.5,198.5v-37h37v37z" stroke="none" stroke-width="0" stroke-linecap="butt"/></g></g></svg>