<svg version="1.1" xmlns="http://www.w3.org/2000/svg" xmlns:xlink="http://www.w3.org/1999/xlink" width="40.6" height="40.6" viewBox="0,0,40.6,40.6"><g transform="translate(-219.7,-159.7)"><g data-paper-data="{&quot;isPaintingLayer&quot;:true}" fill-rule="nonzero" stroke-linejoin="miter" stroke-miterlimit="10" stroke-dasharray="" stroke-dashoffset="0" style="mix-blend-mode: normal"><path d="M232.17615,177.52403c0,0 -0.79922,8.71267 7.712,8.7c9.2204,-0.01372 7.80064,-8.8 7.80064,-8.8" fill="none" stroke="#000000" stroke-width="3" stroke-linecap="round"/><path d="M242.92769,178.17598c-0.32896,1.52292 -2.05458,2.12402 -2.94515,2.12402c-1.00363,0 -2.4169,-0.52002 -3.03743,-2.29974c-0.78639,-2.25542 -0.66439,-4.57344 -0.66874,-6.70059c-0.0043,-2.10393 -0.14332,-4.01679 0.59471,-6.28039c0.62166,-1.90666 2.06716,-2.11928 3.11146,-2.11928c0.89151,0 2.21416,0.48375 2.81919,1.92862c0.2918,0.69685 0.73548,3.42793 0.71092,6.27436c-0.03142,3.64208 0.01722,4.2852 -0.58496,7.073z" fill="#000000" stroke="#000000" stroke-width="3" stroke-linecap="butt"/><path d="M239.67867,186.7v10.4" fill="none" stroke="#000000" stroke-width="3" stroke-linecap="round"/><path d="M219.7,200.3v-40.6h40.6v40.6z" fill="none" stroke="none" stroke-width="0" stroke-linecap="butt"/></g></g></svg>