<svg version="1.1" xmlns="http://www.w3.org/2000/svg" xmlns:xlink="http://www.w3.org/1999/xlink" width="55.95275" height="55.95275" viewBox="0,0,55.95275,55.95275"><g transform="translate(-212.02366,-152.02363)"><g data-paper-data="{&quot;isPaintingLayer&quot;:true}" fill-rule="nonzero" stroke="none" stroke-linecap="butt" stroke-linejoin="miter" stroke-miterlimit="10" stroke-dasharray="" stroke-dashoffset="0" style="mix-blend-mode: normal"><path d="M212.02367,207.97638v-55.95275h55.95275v55.95275z" fill="none" stroke-width="0"/><path d="M240.00001,184.59821c-1.53275,0 -2.83555,-0.53645 -3.90848,-1.60937c-1.07293,-1.07293 -1.60937,-2.37573 -1.60937,-3.90848v-11.0357c0,-1.53275 0.53645,-2.83555 1.60937,-3.90848c1.07293,-1.07293 2.37573,-1.60937 3.90848,-1.60937c1.53275,0 2.83555,0.53645 3.90848,1.60937c1.07293,1.07293 1.60937,2.37573 1.60937,3.90848v11.0357c0,1.53275 -0.53645,2.83555 -1.60937,3.90848c-1.07293,1.07293 -2.37573,1.60937 -3.90848,1.60937zM238.16073,197.47318v-5.65579c-3.1881,-0.42916 -5.8244,-1.8546 -7.90892,-4.27633c-2.08451,-2.42173 -3.12678,-5.24196 -3.12678,-8.4607h3.67857c0,2.54433 0.89665,4.71316 2.68995,6.50646c1.7933,1.7933 3.96213,2.68995 6.50646,2.68995c2.54433,0 4.71316,-0.89665 6.50646,-2.68995c1.7933,-1.7933 2.68995,-3.96211 2.68995,-6.50646h3.67857c0,3.21874 -1.04227,6.03897 -3.12678,8.4607c-2.08451,2.42173 -4.72083,3.84717 -7.90892,4.27633v5.65579z" fill="#000000" stroke-width="1"/></g></g></svg>