<svg version="1.1" xmlns="http://www.w3.org/2000/svg" xmlns:xlink="http://www.w3.org/1999/xlink" width="166.75" height="166.75" viewBox="0,0,166.75,166.75"><g transform="translate(-156.625,-96.625)"><g data-paper-data="{&quot;isPaintingLayer&quot;:true}" fill-rule="nonzero" stroke-linejoin="miter" stroke-miterlimit="10" stroke-dasharray="" stroke-dashoffset="0" style="mix-blend-mode: normal"><g><path d="M191.26473,152.14431c0,0 18.14383,-28.15276 49.03426,-26.90904c27.24129,1.09679 48.43628,26.90904 48.43628,26.90904" fill="none" stroke="#000000" stroke-width="15" stroke-linecap="round"/><path d="M205.01824,174.7053c0,0 12.80086,-19.86237 34.59472,-18.9849c19.21932,0.77381 34.17283,18.9849 34.17283,18.9849" fill="none" stroke="#000000" stroke-width="15" stroke-linecap="round"/><path d="M221.16367,198.06824c0,0 6.79002,-10.53569 18.35024,-10.07025c10.19459,0.41046 18.12646,10.07025 18.12646,10.07025" fill="none" stroke="#000000" stroke-width="15" stroke-linecap="round"/><path d="M224.5273,222.85529c0,-8.25636 6.6931,-14.94947 14.94947,-14.94947c8.25636,0 14.94947,6.6931 14.94947,14.94947c0,8.25636 -6.6931,14.94947 -14.94947,14.94947c-8.25636,0 -14.94947,-6.6931 -14.94947,-14.94947z" fill="#000000" stroke="none" stroke-width="0" stroke-linecap="butt"/></g><path d="M164.125,180c0,-41.90461 33.97039,-75.875 75.875,-75.875c41.90461,0 75.875,33.97039 75.875,75.875c0,41.90461 -33.97039,75.875 -75.875,75.875c-41.90461,0 -75.875,-33.97039 -75.875,-75.875z" fill="none" stroke="#ff0000" stroke-width="15" stroke-linecap="butt"/><path d="M187.16667,127.16667l105.66667,105.66667" fill="none" stroke="#ff0000" stroke-width="15" stroke-linecap="round"/></g></g></svg>