<svg version="1.1" xmlns="http://www.w3.org/2000/svg" xmlns:xlink="http://www.w3.org/1999/xlink" width="412" height="412" viewBox="0,0,412,412"><g transform="translate(-34,26)"><g data-paper-data="{&quot;isPaintingLayer&quot;:true}" fill-rule="nonzero" stroke-linejoin="miter" stroke-miterlimit="10" stroke-dasharray="" stroke-dashoffset="0" style="mix-blend-mode: normal"><path d="M42,180c0,-109.35238 88.64762,-198 198,-198c109.35238,0 198,88.64762 198,198c0,109.35238 -88.64762,198 -198,198c-109.35238,0 -198,-88.64762 -198,-198z" fill="#b5b5b5" stroke="#757575" stroke-width="7.5" stroke-linecap="butt"/><path d="M201,-10.08334l189,319l20,-24l-190,-299z" fill="#dddddd" stroke="#dddddd" stroke-width="0.5" stroke-linecap="round"/><path d="M243,-15.08334l180,271l7,-21l-174,-251z" fill="#dddddd" stroke="#dddddd" stroke-width="0.5" stroke-linecap="round"/><path d="M341.82092,351.14472c-16.95547,10.63854 -20.123,11.72027 -34.62462,16.77445c-25.37235,8.84291 -80.71988,10.85971 -80.71988,10.85971c0,0 -45.32649,-6.33583 -90.55628,-28.55178c-30.86871,-15.16208 -25.41658,-28.11189 -51.68467,-50.30994c-19.99946,-16.90071 -24.98547,-38.54286 -32.56976,-60.32936c-5.74012,-16.48897 -7.59701,-55.56057 -7.59701,-55.56057c0,0 44.43013,102.10154 101.0117,136.75815c56.58157,34.65661 179.27204,34.91761 179.27204,34.91761c0,0 39.47695,-18.36727 17.46847,-4.55827z" data-paper-data="{&quot;index&quot;:null}" fill="#989898" stroke="none" stroke-width="0" stroke-linecap="round"/><path d="M274,-16.08334c0,0 51.48891,32.39897 79.50796,59.00826c28.01905,26.60929 79.49204,91.99174 79.49204,91.99174c0,0 -0.13772,66.13154 4.92106,53.13719c6.68405,-17.16914 1.71116,9.45884 -1.68098,-11.17665c-2.34592,-14.27104 -5.35484,-47.81816 -15.49656,-71.28191c-15.9677,-36.94264 -40.74353,-63.67863 -40.74353,-63.67863c0,0 -40.84146,-33.77168 -60.84182,-41.5496c-11.43125,-4.44549 -28.66074,-12.75836 -44.47751,-15.08254c-20.53043,-3.01683 -0.68067,-1.36786 -0.68067,-1.36786z" fill="#d8d8d8" stroke="none" stroke-width="0" stroke-linecap="round"/><path d="M176.70261,138.35849c0,21.17856 0.12218,45.373 -7.78361,59.36167c-8.07189,14.28257 -21.30031,16.13833 -33.71639,16.13833c-24.57667,0 -47.5,-32.69793 -47.5,-75.5c0,-35.3819 21.61428,-64.89264 40.21727,-74.17682c3.90135,-1.94705 4.02211,-1.98985 8.28273,-1.98985c9.4906,0 14.28727,6.84088 21.51071,15.65789c7.09144,8.6559 9.66662,20.67838 12.89353,34.03192c1.99801,8.26811 6.09576,16.42987 6.09576,26.47686z" fill="#ffffff" stroke="#000000" stroke-width="7.5" stroke-linecap="butt"/><path d="M90.03596,135.69182c0,-27.69474 6.55625,-36.53947 14.73149,-46.28421c2.82925,-3.37242 11.05202,-17.21579 14.60183,-17.21579c5.33704,0 7.95404,8.2664 10.79227,15.654c4.50439,11.7244 7.54107,27.31011 7.54107,50.17933c0,37.27922 -14.52622,56.16666 -28.33334,56.16666c-13.80712,0 -19.33333,-21.22078 -19.33333,-58.5z" fill="#000000" stroke="#000000" stroke-width="7.5" stroke-linecap="butt"/><path d="M393.99052,129.40525c0,0.73132 6.32446,27.1267 6.30683,27.85263c-0.91625,37.74053 -46.14318,53.31403 -76.30683,53.31403c-7.95851,0 -13.23313,-1.50893 -18.65643,-6.39415c-3.64048,-3.27929 -7.56702,-7.55243 -10.67815,-12.54328c-1.04657,-1.67889 -2.00086,-3.439 -2.82096,-5.26982c-2.65566,-5.92862 -5.93882,-13.26533 -7.34049,-20.31988c-2.36678,-11.91194 -1.83731,-24.25349 -1.83731,-36.63954c0,-7.15812 -1.14963,-14.06588 0.43071,-20.57155c1.62329,-6.68247 2.1251,-17.60736 5.32453,-23.27687c3.64272,-6.45503 11.88087,-12.84422 17.53371,-16.69746c7.40683,-5.04885 10.36109,-7.38117 17.90132,-8.54608c3.36901,-0.52049 10.58822,-1.07471 14.47639,-1.07471c8.52943,0 10.94415,6.08467 18.16958,10.40651c6.96722,4.16739 10.91532,11.9357 16.90344,18.54946c10.18559,11.2498 20.59365,23.57683 20.59365,41.21069z" fill="#ffffff" stroke="#000000" stroke-width="7.5" stroke-linecap="butt"/><path d="M334.10078,71.74095c2.82925,-3.37242 5.71868,-5.54913 9.26849,-5.54913c0.73615,0 11.08722,4.82394 11.7276,5.11449c4.00226,1.81588 25.95126,24.83758 28.39801,31.20618c4.50439,11.7244 10.20774,5.64345 10.20774,28.51267c0,0.71182 4.32804,14.75026 4.31755,15.44867c-0.12899,8.59134 -1.07653,17.75303 -2.7688,24.68618c-2.25175,9.22534 -5.82207,15.27557 -10.53704,18.2687c-6.5394,4.15131 -6.35997,6.76311 -12.34506,6.76311c-0.3585,0 -4.36804,3.31567 -4.69733,3.28063c-6.28089,-0.66834 -3.94998,-7.6607 -14.34048,-19.06957c-3.63422,-3.99041 -10.28207,-12.67569 -11.75358,-19.59185c-1.50624,-7.07937 -10.61488,-14.29543 -9.58352,-21.25384c0.19886,-1.34169 -4.10985,-7.92308 -5.00879,-15.76537c-1.57867,-13.7723 -1.06002,-42.30613 7.11521,-52.05087z" data-paper-data="{&quot;index&quot;:null}" fill="#000000" stroke="#000000" stroke-width="7.5" stroke-linecap="butt"/><path d="M143.00066,277.26144l194,1" fill="none" stroke="#000000" stroke-width="7.5" stroke-linecap="round"/><path d="M353.50066,300.26144c0,0 -6.52539,0.50947 -10.94239,-4.86861c-4.18886,-5.10031 -4.78023,-13.49885 -4.82188,-17.12261c-0.03597,-3.12928 4.2804,-15.23813 7.97239,-18.83487c4.6039,-4.48512 9.79188,-3.67391 9.79188,-3.67391" fill="none" stroke="#000000" stroke-width="7.5" stroke-linecap="round"/><path d="M123.50066,246.76144c0,0 6.81886,7.64653 12.86352,16.01512c3.63587,5.03372 7.62984,12.14778 7.89421,15.61762c0.06896,0.90515 -0.0118,1.93603 -0.22618,3.0424c-0.75008,3.87117 -3.13586,8.6665 -6.46642,12.23346c-4.25202,4.55382 -10.06514,7.09139 -10.06514,7.09139" fill="none" stroke="#000000" stroke-width="7.5" stroke-linecap="round"/><path d="M42,180c0,-109.35238 88.64762,-198 198,-198c109.35238,0 198,88.64762 198,198c0,109.35238 -88.64762,198 -198,198c-109.35238,0 -198,-88.64762 -198,-198z" fill="none" stroke="#757575" stroke-width="7.5" stroke-linecap="butt"/><path d="M34,386v-412h412v412z" fill="none" stroke="none" stroke-width="0" stroke-linecap="butt"/></g></g></svg>