<svg version="1.1" xmlns="http://www.w3.org/2000/svg" xmlns:xlink="http://www.w3.org/1999/xlink" width="68.4" height="52.6" viewBox="0,0,68.4,52.6"><g transform="translate(-205.8,-153.7)"><g data-paper-data="{&quot;isPaintingLayer&quot;:true}" fill="none" fill-rule="nonzero" stroke="#000000" stroke-width="5" stroke-linejoin="miter" stroke-miterlimit="10" stroke-dasharray="" stroke-dashoffset="0" style="mix-blend-mode: normal"><path d="M252.22329,178.22468c-3.2012,-2.05267 -19.123,-12.02085 -23.60922,-14.89752c-0.69022,-0.44259 -1.27902,0.08399 -1.27902,0.90392c0,3.53099 0,25.51581 0,31.8c0,0.99808 0.98889,0.98146 1.80567,0.40785c5.35455,-3.76045 20.92132,-14.69284 23.30446,-16.36649c0.60131,-0.42229 -0.22189,-1.84776 -0.22189,-1.84776z" stroke-linecap="round"/><path d="M208.3,161.92405c0,-3.89013 3.2505,-5.72405 7.14063,-5.72405c7.49005,0 36.10801,0 49.4,0c3.97793,0 6.85938,2.14612 6.85938,6.12405c0,5.41302 0,26.21912 0,36.6c0,3.76118 -1.0982,4.87595 -4.85937,4.87595c-6.7962,0 -38.49466,0 -52.2,0c-6.55187,0 -6.25988,-3.12272 -6.26635,-6.27458c-0.01281,-6.24421 -0.07428,-35.60137 -0.07428,-35.60137z" stroke-linecap="butt"/></g></g></svg>