<svg version="1.1" xmlns="http://www.w3.org/2000/svg" xmlns:xlink="http://www.w3.org/1999/xlink" width="71.2" height="71.2" viewBox="0,0,71.2,71.2"><g transform="translate(-204.4,-144.4)"><g data-paper-data="{&quot;isPaintingLayer&quot;:true}" fill-rule="nonzero" stroke-linejoin="miter" stroke-miterlimit="10" stroke-dasharray="" stroke-dashoffset="0" style="mix-blend-mode: normal"><path d="M214.7872,179.65433c-6.05389,-6.05389 -6.05389,-15.86917 0,-21.92306c6.05389,-6.05389 15.86916,-6.05389 21.92305,0c6.05389,6.05389 6.05389,15.86916 0,21.92305c-6.05389,6.05389 -15.86916,6.0539 -21.92305,0zM223.77565,166.28126c1.81616,-1.81616 1.81616,-4.76075 0,-6.57691c-1.81616,-1.81616 -4.76076,-1.81616 -6.57692,0c-1.81616,1.81616 -1.81615,4.76076 0,6.57692c1.81616,1.81616 4.76075,1.81616 6.57691,0z" fill="#000000" stroke="none" stroke-width="NaN" stroke-linecap="butt"/><path d="M230.51824,180.58481l8.16508,-8.16508l25.13358,24.75953l1.1261,9.62988l-8.96133,-1.27299l-1.3973,-1.26688l-1.98352,-1.81866l-6.34139,0.00471l-0.19942,-6.19287l-6.5772,-0.17316l0.33754,-5.77689l-6.80463,-0.90332l0.90177,-5.43663z" fill="#000000" stroke="none" stroke-width="0" stroke-linecap="butt"/><path d="M275.6,215.6h-71.2v-71.2h71.2c0,0 0,26.9261 0,39.35c0,11.17739 0,31.85 0,31.85z" fill="none" stroke="none" stroke-width="0" stroke-linecap="butt"/><path d="M258.5,152.875v16.25" fill="none" stroke="#00ad09" stroke-width="5" stroke-linecap="round"/><path d="M266.625,161h-16.25" fill="none" stroke="#00ad09" stroke-width="5" stroke-linecap="round"/></g></g></svg>