<svg version="1.1" xmlns="http://www.w3.org/2000/svg" xmlns:xlink="http://www.w3.org/1999/xlink" width="55.95275" height="55.95275" viewBox="0,0,55.95275,55.95275"><g transform="translate(-212.02363,-152.02363)"><g data-paper-data="{&quot;isPaintingLayer&quot;:true}" fill-rule="nonzero" stroke-linecap="butt" stroke-linejoin="miter" stroke-miterlimit="10" stroke-dasharray="" stroke-dashoffset="0" style="mix-blend-mode: normal"><path d="M226.15001,198v-3h27.7v3zM226.10001,190.8l-2.65,-16.7c-0.16666,0.06667 -0.325,0.10833 -0.475,0.125c-0.15,0.01667 -0.30833,0.025 -0.475,0.025c-0.7,0 -1.29166,-0.24167 -1.775,-0.725c-0.48334,-0.48333 -0.725,-1.075 -0.725,-1.775c0,-0.7 0.24166,-1.3 0.725,-1.8c0.48334,-0.5 1.075,-0.75 1.775,-0.75c0.7,0 1.3,0.25 1.8,0.75c0.5,0.5 0.75,1.1 0.75,1.8c0,0.26667 -0.04166,0.53333 -0.125,0.8c-0.08334,0.26667 -0.20834,0.5 -0.375,0.7l7.4,3.3l7.05,-9.7c-0.46667,-0.2 -0.84167,-0.50833 -1.125,-0.925c-0.28333,-0.41666 -0.425,-0.89166 -0.425,-1.425c0,-0.7 0.25,-1.29167 0.75,-1.775c0.5,-0.48333 1.1,-0.725 1.8,-0.725c0.7,0 1.3,0.24167 1.8,0.725c0.5,0.48333 0.75,1.075 0.75,1.775c0,0.53334 -0.14167,1.00833 -0.425,1.425c-0.28333,0.41666 -0.65833,0.725 -1.125,0.925l7.05,9.7l7.4,-3.3c-0.16666,-0.2 -0.29166,-0.43333 -0.375,-0.7c-0.08334,-0.26667 -0.125,-0.53333 -0.125,-0.8c0,-0.7 0.25,-1.3 0.75,-1.8c0.5,-0.5 1.08333,-0.75 1.75,-0.75c0.7,0 1.3,0.25 1.8,0.75c0.5,0.5 0.75,1.1 0.75,1.8c0,0.7 -0.25,1.29167 -0.75,1.775c-0.5,0.48333 -1.1,0.725 -1.8,0.725c-0.16667,0 -0.31667,-0.01666 -0.45,-0.05c-0.13333,-0.03334 -0.28333,-0.08334 -0.45,-0.15l-2.65,16.75z" fill="#000000" stroke="none" stroke-width="1"/><path d="M253.30779,167.97189h-8.05821v-1.46513h8.05821h1.46513h8.05821v1.46513h-8.05821z" fill="#ff0000" stroke="#ff0000" stroke-width="2.5"/><path d="M212.02364,207.97638v-55.95275h55.95275v55.95275z" fill="none" stroke="none" stroke-width="0"/></g></g></svg>