<svg version="1.1" xmlns="http://www.w3.org/2000/svg" xmlns:xlink="http://www.w3.org/1999/xlink" width="205.72072" height="205.72072" viewBox="0,0,205.72072,205.72072"><g transform="translate(-137.13964,-77.13964)"><g data-paper-data="{&quot;isPaintingLayer&quot;:true}" fill-rule="nonzero" stroke-linecap="butt" stroke-linejoin="miter" stroke-miterlimit="10" stroke-dasharray="" stroke-dashoffset="0" style="mix-blend-mode: normal"><path d="M176.67117,258.1745c0,0 -34.07846,-156.10028 61,-158c100.09744,-2 66,158 66,158zM204.4312,157.11191l32.23416,-0.39849l-0.85929,-32.78894l-31.41926,0.2866zM274.47274,155.59114l-0.83333,-33.16667l-27.83333,0.16667l0.16667,33.16667zM246.1394,193.59114l29.5,-0.16667l-0.16667,-28.5l-29.16667,-0.16667zM235.30607,193.42448l0.71629,-27.55243l-30.88296,0.05243l0.83333,27.16667z" fill="#acacac" stroke="#000000" stroke-width="2"/><path d="M285.70242,211.6745c0,-4.23418 3.43248,-7.66667 7.66667,-7.66667c4.23418,0 7.66667,3.43248 7.66667,7.66667c0,4.23418 -3.43248,7.66667 -7.66667,7.66667c-4.23418,0 -7.66667,-3.43248 -7.66667,-7.66667z" fill="#f2ff00" stroke="#ccb400" stroke-width="2"/><path d="M188.59145,258.76065c0,0 -10.22172,0.52438 -12.19814,-1.05582c-2.14352,-1.71381 -0.70241,-7.85876 -0.70241,-7.85876l107.76908,-135.03861l10.40055,12.41459z" fill="#ffe800" stroke="#bda500" stroke-width="2"/><text transform="translate(183.91072,258.4873) rotate(-51.35667) scale(0.35545,0.35545)" font-size="40" xml:space="preserve" fill="#242100" fill-rule="nonzero" stroke="none" stroke-width="1" stroke-linecap="butt" stroke-linejoin="miter" stroke-miterlimit="10" stroke-dasharray="" stroke-dashoffset="0" font-family="Sans Serif" font-weight="normal" text-anchor="start" style="mix-blend-mode: normal"><tspan x="0" dy="0">CAUTION</tspan></text><path d="M185.21693,128.22203l10.40054,-12.41459l107.76908,135.03862c0,0 1.44111,6.14496 -0.70241,7.85877c-1.97642,1.5802 -12.19813,1.05583 -12.19813,1.05583z" data-paper-data="{&quot;index&quot;:null}" fill="#ffe800" stroke="#bda500" stroke-width="2"/><text transform="translate(189.44419,127.96939) rotate(50.3889) scale(0.35545,0.35545)" font-size="40" xml:space="preserve" data-paper-data="{&quot;index&quot;:null}" fill="#242100" fill-rule="nonzero" stroke="none" stroke-width="1" stroke-linecap="butt" stroke-linejoin="miter" stroke-miterlimit="10" stroke-dasharray="" stroke-dashoffset="0" font-family="Sans Serif" font-weight="normal" text-anchor="start" style="mix-blend-mode: normal"><tspan x="0" dy="0">CAUTION</tspan></text><path d="M137.13964,282.86036v-205.72072h205.72072v205.72072z" fill="none" stroke="none" stroke-width="0"/><text transform="translate(253.11086,207.63606) rotate(50.38895) scale(0.35545,0.35545)" font-size="40" xml:space="preserve" data-paper-data="{&quot;index&quot;:null}" fill="#242100" fill-rule="nonzero" stroke="none" stroke-width="1" stroke-linecap="butt" stroke-linejoin="miter" stroke-miterlimit="10" stroke-dasharray="" stroke-dashoffset="0" font-family="Sans Serif" font-weight="normal" text-anchor="start" style="mix-blend-mode: normal"><tspan x="0" dy="0">CAUTION</tspan></text><text transform="translate(250.91072,175.82063) rotate(-51.35655) scale(0.35545,0.35545)" font-size="40" xml:space="preserve" fill="#242100" fill-rule="nonzero" stroke="none" stroke-width="1" stroke-linecap="butt" stroke-linejoin="miter" stroke-miterlimit="10" stroke-dasharray="" stroke-dashoffset="0" font-family="Sans Serif" font-weight="normal" text-anchor="start" style="mix-blend-mode: normal"><tspan x="0" dy="0">CAUTION</tspan></text></g></g></svg>