<svg version="1.1" xmlns="http://www.w3.org/2000/svg" xmlns:xlink="http://www.w3.org/1999/xlink" width="325.25001" height="323.43251" viewBox="0,0,325.25001,323.43251"><g transform="translate(-77.375,-18.28375)"><g data-paper-data="{&quot;isPaintingLayer&quot;:true}" fill-rule="nonzero" stroke-linecap="butt" stroke-linejoin="miter" stroke-miterlimit="10" stroke-dasharray="" stroke-dashoffset="0" style="mix-blend-mode: normal"><path d="M150.20689,179.53375c0,-48.60106 39.39894,-88 88,-88c48.60106,0 88,39.39894 88,88c0,48.60106 -39.39894,88 -88,88c-48.60106,0 -88,-39.39894 -88,-88z" fill="none" stroke="#000000" stroke-width="50"/><path d="M196.41001,117.28375l20,-99h40l19,99z" fill="#000000" stroke="none" stroke-width="0"/><path d="M260.97751,108.85482l84.14571,-55.86144l28.28427,28.28428l-56.56855,83.4386z" fill="#000000" stroke="none" stroke-width="0"/><path d="M303.625,154.50126l99,20v40l-99,19z" fill="#000000" stroke="none" stroke-width="0"/><path d="M312.05393,203.06876l55.86144,84.14571l-28.28427,28.28427l-83.4386,-56.56854z" fill="#000000" stroke="none" stroke-width="0"/><path d="M273.40749,242.71625l-20,99h-40l-19,-99z" fill="#000000" stroke="none" stroke-width="0"/><path d="M220.83999,253.14518l-84.14571,55.86144l-28.28427,-28.28427l56.56855,-83.4386z" fill="#000000" stroke="none" stroke-width="0"/><path d="M176.375,216.89518l-99,-20l0.00001,-40l99,-19z" fill="#000000" stroke="none" stroke-width="0"/><path d="M157.94607,166.32769l-55.86143,-84.14571l28.28427,-28.28427l83.4386,56.56855z" fill="#000000" stroke="none" stroke-width="0"/><path d="M166.5,180c0,-40.59293 32.90707,-73.5 73.5,-73.5c40.59293,0 73.5,32.90707 73.5,73.5c0,40.59293 -32.90707,73.5 -73.5,73.5c-40.59293,0 -73.5,-32.90707 -73.5,-73.5z" fill="none" stroke="#000000" stroke-width="50"/></g></g></svg>