<svg version="1.1" xmlns="http://www.w3.org/2000/svg" xmlns:xlink="http://www.w3.org/1999/xlink" width="89.90673" height="80" viewBox="0,0,89.90673,80"><g transform="translate(-194.60464,-140)"><g data-paper-data="{&quot;isPaintingLayer&quot;:true}" fill-rule="nonzero" stroke="#000000" stroke-width="5" stroke-linejoin="miter" stroke-miterlimit="10" stroke-dasharray="" stroke-dashoffset="0" style="mix-blend-mode: normal"><path d="M239.35464,142.5c0,0 -32.63433,0 -38.65606,0c-1.97573,0 -3.59394,0.88623 -3.59394,2.86196c0,6.98897 0,56.97046 0,69.36316c0,1.94694 1.5635,2.77487 3.51043,2.77487c6.01608,0 39.16706,0 39.16706,0" fill="none" stroke-linecap="round"/><path d="M217.44858,187.3464c0,-1.95226 0,-9.0751 0,-12.92577c0,-1.5851 0.92695,-2.51141 2.32256,-2.51141c4.15178,0 27.45073,0 34.60616,0c1.33461,0 2.07818,-0.98446 2.05951,-2.50013c-0.0488,-3.96126 -0.14118,-11.46234 -0.16892,-13.71446c-0.0131,-1.06312 0.65345,-1.974 1.36453,-1.28251c2.73132,2.65608 19.1187,18.59209 24.37895,23.70744c0.86105,0.83733 1.25696,1.96781 0.42737,2.84516c-2.53591,2.68196 -18.71257,19.79023 -24.04014,25.42462c-0.81363,0.86049 -1.71879,0.16907 -1.73434,-1.0935c-0.02639,-2.14298 -0.10666,-8.65964 -0.15611,-12.67426c-0.02586,-2.10001 -1.21073,-3.29135 -3.05987,-3.29135c-7.92003,0 -28.97384,0 -33.21263,0c-1.45461,0 -2.78707,-1.98383 -2.78707,-1.98383z" fill="#000000" stroke-linecap="butt"/></g></g></svg>