<svg version="1.1" xmlns="http://www.w3.org/2000/svg" xmlns:xlink="http://www.w3.org/1999/xlink" width="55.95275" height="55.95275" viewBox="0,0,55.95275,55.95275"><g transform="translate(-212.02363,-152.02363)"><g data-paper-data="{&quot;isPaintingLayer&quot;:true}" fill-rule="nonzero" stroke="none" stroke-linecap="butt" stroke-linejoin="miter" stroke-miterlimit="10" stroke-dasharray="" stroke-dashoffset="0" style="mix-blend-mode: normal"><path d="M243.9428,197.24977v-4.04137c2.9571,-0.85427 5.33921,-2.49712 7.14633,-4.9285c1.80712,-2.43139 2.71068,-5.19135 2.71068,-8.27989c0,-3.08854 -0.90355,-5.8485 -2.71068,-8.27989c-1.80712,-2.43139 -4.18923,-4.07424 -7.14633,-4.9285v-4.04137c4.07424,0.91999 7.39276,2.98175 9.95558,6.18527c2.56282,3.20353 3.84423,6.89169 3.84423,11.06449c0,4.17281 -1.28141,7.86096 -3.84423,11.06449c-2.56282,3.20353 -5.88134,5.26528 -9.95558,6.18527zM222.25738,185.96349v-11.82841h7.88561l9.85701,-9.85701v31.54243l-9.85701,-9.85701zM243.9428,187.93489v-15.86978c1.54426,0.72285 2.75174,1.80712 3.62245,3.25281c0.87071,1.44569 1.30605,3.02281 1.30605,4.73136c0,1.67569 -0.43534,3.22817 -1.30605,4.65744c-0.87071,1.42927 -2.07819,2.50532 -3.62245,3.22817z" fill="#000000" stroke-width="1"/><path d="M212.02364,207.97638v-55.95275h55.95275v55.95275z" fill="none" stroke-width="0"/></g></g></svg>