<svg version="1.1" xmlns="http://www.w3.org/2000/svg" xmlns:xlink="http://www.w3.org/1999/xlink" width="224.14688" height="206.78164" viewBox="0,0,224.14688,206.78164"><g transform="translate(-127.92656,-76.60918)"><g data-paper-data="{&quot;isPaintingLayer&quot;:true}" fill-rule="nonzero" stroke-linejoin="miter" stroke-miterlimit="10" stroke-dasharray="" stroke-dashoffset="0" style="mix-blend-mode: normal"><path d="M129.67656,239.83414v-161.39047h172.32751l47.66312,47.25152l-0.25551,155.19097l-172.33612,0.75177z" fill="#daa300" stroke="#635400" stroke-width="3.5" stroke-linecap="butt"/><path d="M132.41186,79.86365l46.49996,49.23525" fill="none" stroke="#635400" stroke-width="3.5" stroke-linecap="round"/><path d="M177.08829,280.45176v-154.08811h173.23515v154.08811z" fill="#ffbf00" stroke="#968000" stroke-width="3.5" stroke-linecap="butt"/><path d="M248.20584,126.7562l-45.5882,-50.14702h21.88234l46.49996,51.05878l-0.89047,27.81741l-21.99824,0.0946z" fill-opacity="0.63137" fill="#ffffff" stroke="none" stroke-width="3.5" stroke-linecap="butt"/><path d="M238.73633,202.58509c0,8.88679 0.04862,19.03908 -3.09754,24.9089c-3.21226,5.99315 -8.47659,6.77185 -13.41765,6.77185c-9.78044,0 -18.90292,-13.72046 -18.90292,-31.68075c0,-14.84669 8.60154,-27.22976 16.00472,-31.12552c1.55257,-0.81701 1.60062,-0.83497 3.29616,-0.83497c3.77684,0 5.68571,2.87052 8.56032,6.57025c2.82208,3.63212 3.84689,8.67691 5.13106,14.28022c0.79512,3.4694 2.42585,6.89418 2.42585,11.11002z" fill="#ffffff" stroke="#000000" stroke-width="4" stroke-linecap="butt"/><path d="M204.2468,201.46612c0,-11.62106 2.6091,-15.33242 5.86249,-19.42143c1.12592,-1.41511 4.39822,-7.22396 5.81089,-7.22396c2.12391,0 3.16536,3.46869 4.29485,6.56861c1.79255,4.91971 3.00102,11.45966 3.00102,21.05588c0,15.64283 -5.7808,23.56823 -11.27543,23.56823c-5.49463,0 -7.69382,-8.90451 -7.69382,-24.54733z" fill="#000000" stroke="#000000" stroke-width="4" stroke-linecap="butt"/><path d="M325.20742,198.8282c0,0.30687 2.51686,11.3827 2.50984,11.68731c-0.36463,15.8364 -18.36297,22.37123 -30.36678,22.37123c-3.16714,0 -5.26621,-0.63317 -7.42444,-2.68307c-1.44875,-1.37603 -3.01134,-3.16909 -4.24944,-5.26332c-0.41649,-0.70448 -0.79625,-1.44305 -1.12262,-2.21128c-1.05684,-2.48772 -2.36339,-5.5663 -2.92119,-8.52648c-0.94187,-4.9984 -0.73117,-10.17707 -0.73117,-15.37441c0,-3.00364 -0.4575,-5.90222 0.1714,-8.63208c0.646,-2.80405 0.8457,-7.38827 2.11893,-9.76727c1.44964,-2.70861 4.72807,-5.3896 6.97765,-7.00646c2.94759,-2.11856 4.12326,-3.09723 7.12394,-3.58604c1.34072,-0.2184 4.21365,-0.45096 5.76097,-0.45096c3.39434,0 4.35529,2.5532 7.2307,4.3667c2.77265,1.74869 4.34382,5.00837 6.72683,7.78359c4.05342,4.72056 8.19537,9.89313 8.19537,17.29252z" fill="#ffffff" stroke="#000000" stroke-width="4" stroke-linecap="butt"/><path d="M301.37392,174.63154c1.12592,-1.41511 2.27578,-2.32848 3.68845,-2.32848c0.29296,0 4.41223,2.02419 4.66707,2.1461c1.59272,0.76197 10.32747,10.42216 11.30117,13.0945c1.79255,4.91971 4.06223,2.36806 4.06223,11.96427c0,0.29869 1.72237,6.18939 1.7182,6.48246c-0.05133,3.60503 -0.42841,7.44939 -1.10186,10.35863c-0.8961,3.87107 -2.31693,6.40982 -4.19328,7.66578c-2.6024,1.74194 -2.53099,2.83789 -4.91279,2.83789c-0.14267,0 -1.73829,1.3913 -1.86933,1.37659c-2.49952,-0.28044 -1.57192,-3.21453 -5.70688,-8.00183c-1.44626,-1.67443 -4.09181,-5.31888 -4.67741,-8.22099c-0.59942,-2.97059 -4.22426,-5.99854 -3.81382,-8.91838c0.07914,-0.56299 -1.63554,-3.32462 -1.99328,-6.61535c-0.62824,-5.77903 -0.42184,-17.75218 2.83154,-21.8412z" data-paper-data="{&quot;index&quot;:null}" fill="#000000" stroke="#000000" stroke-width="4" stroke-linecap="butt"/><path d="M224.92648,260.87051l77.20352,0.41961" fill="none" stroke="#000000" stroke-width="4" stroke-linecap="round"/><path d="M309.09423,270.5216c0,0 -2.59682,0.21378 -4.35459,-2.04293c-1.66698,-2.14015 -1.90232,-5.66429 -1.9189,-7.18486c-0.01431,-1.31309 1.70341,-6.39411 3.17266,-7.90335c1.83215,-1.88201 3.89674,-1.54162 3.89674,-1.54162" fill="none" stroke="#000000" stroke-width="4" stroke-linecap="round"/><path d="M217.56428,248.07233c0,0 2.71361,3.20858 5.11912,6.72014c1.44692,2.11221 3.03634,5.09736 3.14155,6.55335c0.02744,0.37981 -0.0047,0.81238 -0.09001,1.27663c-0.2985,1.62439 -1.24794,3.63657 -2.57335,5.13331c-1.69212,1.91084 -4.00549,2.97564 -4.00549,2.97564" fill="none" stroke="#000000" stroke-width="4" stroke-linecap="round"/><g stroke-width="4"><path d="M302.38845,174.64455v-18.28698h18.10136v18.28698z" fill="#00ff15" stroke="none" stroke-linecap="butt"/><path d="M302.48792,174.62287h-21.18456v-17.61823h22.07968" fill="#00ff15" stroke="#117500" stroke-linecap="round"/><path d="M303.38303,157.00464v-22.3374h16.70895v21.70818" data-paper-data="{&quot;index&quot;:null}" fill="#00ff15" stroke="#117500" stroke-linecap="round"/><path d="M320.09199,156.37541h21.18456v17.61823h-22.07968" data-paper-data="{&quot;index&quot;:null}" fill="#00ff15" stroke="#117500" stroke-linecap="round"/><path d="M319.19686,174.30826v23.91045h-16.70895v-23.59584" data-paper-data="{&quot;index&quot;:null}" fill="#00ff15" stroke="#117500" stroke-linecap="round"/><path d="M303.96021,135.38806h15.23479v22.13927h21.09432v15.96087h-21.58261" fill="none" stroke="#84ff8a" stroke-linecap="round"/><path d="M302.48792,174.62287h-21.18456v-17.61823h22.07968" fill="none" stroke="#117500" stroke-linecap="round"/><path d="M303.38303,157.00464v-22.3374h16.70895v21.70818" data-paper-data="{&quot;index&quot;:null}" fill="none" stroke="#117500" stroke-linecap="round"/><path d="M320.09199,156.37541h21.18456v17.61823h-22.07968" data-paper-data="{&quot;index&quot;:null}" fill="none" stroke="#117500" stroke-linecap="round"/><path d="M319.19686,174.30826v23.91045h-16.70895v-23.59584" data-paper-data="{&quot;index&quot;:null}" fill="none" stroke="#117500" stroke-linecap="round"/></g></g></g></svg>