<svg version="1.1" xmlns="http://www.w3.org/2000/svg" xmlns:xlink="http://www.w3.org/1999/xlink" width="737.34014" height="93.78065" viewBox="0,0,737.34014,93.78065"><g transform="translate(122.21741,-133.10967)"><g data-paper-data="{&quot;isPaintingLayer&quot;:true}" fill-rule="nonzero" stroke="none" stroke-width="0.5" stroke-linecap="butt" stroke-linejoin="miter" stroke-miterlimit="10" stroke-dasharray="" stroke-dashoffset="0" style="mix-blend-mode: normal"><path d="M203.39633,219.66004c-3.25146,1.63666 -4.88812,-1.61481 -4.88812,-1.61481l-0.15646,-0.31266c-3.13707,-5.92393 -7.01498,-11.23236 -10.00186,-17.24564c-0.53598,-1.07907 -1.51568,-2.12042 -2.17622,-3.19452c-0.83257,7.02 -1.29021,14.11112 -0.69929,21.09396c0,0 0.30432,3.6274 -3.32306,3.93174c-3.6274,0.30434 -3.93173,-3.32305 -3.93173,-3.32305c-0.90703,-10.89895 0.51696,-22.00317 2.13324,-32.79141c0.82626,-5.51507 1.60388,-12.84142 6.2926,-16.7738c6.91619,-5.80054 20.80682,-0.03834 21.96309,9.12517c0.61706,4.89025 -1.7146,7.1519 -4.09822,10.70961c-2.80311,3.57202 -2.72615,4.23821 -6.82997,6.41866c-0.9749,0.51798 -1.9974,1.02457 -3.07005,1.28381c0.77469,0.99606 1.47095,2.56484 1.95894,3.50746c2.47568,4.78213 5.67615,9.05994 8.21548,13.84931l0.22643,0.44809c0,0 1.63666,3.25146 -1.61481,4.88812zM186.73691,192.91461c1.1521,-1.00827 2.86701,-1.65393 4.16499,-2.46485c3.73199,-2.33161 4.92012,-1.73136 7.72426,-5.47227c0.71686,-1.00021 3.01089,-3.53368 2.79461,-5.26543c-0.32585,-2.60924 -7.49488,-7.65944 -9.82063,-4.94805c-3.064,3.57206 -3.38297,8.09123 -4.04669,12.51371c-0.28045,1.86867 -0.55705,3.74881 -0.81653,5.6369z" fill="#000000"/><path d="M230.97784,191.26842c3.64013,0 3.64014,3.64015 3.64014,3.64015l-0.0113,4.09021c-0.81263,5.12021 -2.00127,9.46901 -3.89607,13.73918l0.59786,0.10468l-0.75518,4.31315c-0.27224,1.74119 -1.77868,3.0733 -3.59627,3.0733c-2.01039,0 -3.64013,-1.62975 -3.64013,-3.64015v-0.65819c-0.22337,0.17598 -0.45072,0.35075 -0.68157,0.52434c-4.93545,3.71128 -11.26351,6.3822 -15.33987,-0.59468c-4.32721,-7.40625 1.91246,-16.611 8.39065,-20.06975c2.02958,-1.0836 4.36299,-2.46831 6.61166,-1.98161c2.2484,0.48664 3.87103,1.89964 5.0486,3.78907l-0.00864,-2.68956c0,0 0.00001,-3.64015 3.64014,-3.64015zM216.93922,203.81421c-1.45484,1.47347 -2.79593,3.09707 -3.19646,3.76021c-0.39811,0.65912 -0.91092,5.44925 0.44558,5.51934c1.7088,0.08828 7.70144,-4.14579 7.78888,-5.89123c0.08843,-1.76534 -2.89104,-2.79048 -5.038,-3.38832z" fill="#000000"/><path d="M259.77095,220.41972c-3.63878,0.09959 -3.73837,-3.53919 -3.73837,-3.53919l0.04808,-1.6618c-0.97559,-3.75654 -1.11388,-10.70043 -4.05081,-13.6065c-2.37944,-2.35442 -7.45724,-1.28426 -9.01673,1.38495c-2.0623,3.52982 -1.961,9.19293 -1.32928,13.01191c0,0 0.55318,3.59787 -3.04467,4.15106c-3.59786,0.55319 -4.15105,-3.04467 -4.15105,-3.04467c-0.77584,-5.35545 -0.85075,-13.19106 2.34722,-17.97025c4.30678,-6.43626 14.18559,-8.30615 20.18887,-2.83006c4.37509,3.99089 4.71143,11.73563 6.10217,17.07038l0.18377,3.29581c0,0 0.09958,3.63877 -3.5392,3.73837z" fill="#000000"/><path d="M280.42969,194.07406c0.36041,0.06584 0.82879,0.1938 1.28779,0.44261c0.61491,-5.35528 0.7515,-10.60937 0.55871,-16.33852c0,0 -0.12209,-3.63809 3.516,-3.76018c3.6381,-0.1221 3.7602,3.516 3.7602,3.516c0.35817,10.70072 -0.28784,20.76755 -2.7766,31.19985c-1.56765,6.5712 -2.55151,11.35553 -10.24343,11.7392c-14.44206,0.72038 -19.67545,-23.89278 -5.60725,-28.43678c3.07783,-0.99413 6.65428,0.58433 9.50458,1.63784zM280.71734,201.15319c-0.53242,0.13143 -0.93003,0.13142 -0.93003,0.13142l-1.44241,-0.22169c-0.28728,-0.10799 -4.4526,-1.87344 -5.39576,-1.63342c-4.80644,1.2232 -2.77907,10.2652 -0.67519,12.62887c0.69229,0.77777 4.94469,2.62929 5.79393,1.77752c0.46783,-0.46923 0.03105,-1.33615 0.19447,-1.97829c0.77958,-3.06335 1.5465,-6.13246 2.16979,-9.23139c0.09933,-0.49389 0.19437,-0.98477 0.28521,-1.47302z" fill="#000000"/><path d="M306.72757,193.66756c3.13297,0.58438 5.98419,2.06129 8.08181,5.15949c4.86955,7.19238 0.20507,21.47209 -9.26172,22.334c-1.95756,0.17822 -3.83958,-0.91258 -5.66081,-1.6521c-8.34004,-3.38652 -14.32669,-13.46635 -7.64742,-21.73344c0.31496,-0.38983 0.64087,-0.73837 0.97691,-1.05214c0.42411,-2.34497 3.03431,-2.75432 3.03431,-2.75432c1.20592,-0.18569 2.44383,-0.35566 3.68838,-0.47067c0.3786,-0.11515 0.76122,-0.23272 1.14726,-0.35733l1.66855,-0.5529c0,0 2.52485,-0.83596 3.97274,1.07943zM301.68707,200.52794c-1.37968,0.39811 -3.09493,0.98214 -3.74368,1.77163c-3.70678,4.51099 2.07439,11.79783 6.98741,11.60736c4.04552,-0.15685 5.43426,-8.45579 3.75813,-11.13747c-1.3875,-2.21992 -4.26494,-2.47988 -7.00188,-2.24152z" fill="#000000"/><path d="M353.51037,221.88326c-3.33105,-1.46793 -1.8631,-4.79896 -1.8631,-4.79896l1.25734,-2.52238c-0.73679,-4.30136 -2.58767,-7.731 -4.07819,-11.76988c-0.17838,-0.48337 0.33555,-1.62773 -0.17149,-1.53615c-1.72019,0.31067 -1.97787,2.89225 -3.12491,4.21127c-1.02686,1.18081 -2.03998,2.37347 -3.04305,3.57466l-2.46283,5.9774c-0.57867,1.50112 -2.11075,2.4878 -3.78617,2.30742c-1.94772,-0.20969 -3.37045,-1.91927 -3.24284,-3.85596l0.21612,-3.63743c-0.18489,-1.10165 -0.16386,-2.26546 -0.60348,-3.2902c-0.67115,-1.56437 -1.87038,-2.84832 -2.69868,-4.33547c-0.22163,-0.39793 0.01652,-1.33518 -0.43716,-1.29465c-0.65975,0.05894 -0.91251,0.96067 -1.35377,1.45467c-3.75254,4.20103 -3.75572,8.88034 -3.06466,14.23842c0,0 0.43951,3.61351 -3.17399,4.05303c-3.6135,0.43952 -4.05302,-3.17399 -4.05302,-3.17399c-0.63749,-5.51522 -0.9012,-11.28414 1.96019,-16.39229c1.7482,-3.12089 6.68065,-7.69055 10.58282,-7.40455c2.85305,0.20911 6.21871,5.00677 7.98631,8.15644c3.12567,-3.63692 8.85307,-8.05793 11.27073,-7.8039c2.3711,0.24914 3.86268,2.89738 5.3096,4.79226c3.5163,4.605 4.58019,11.23552 5.17393,16.77023l-1.8007,4.41691c0,0 -1.46792,3.33104 -4.79896,1.86311z" fill="#000000"/><path d="M410.12138,222.36793c-8.79487,-0.45354 -11.80036,-9.38121 -9.32585,-16.92034c0.14745,-0.44925 0.3143,-0.88028 0.49915,-1.29383c-0.07358,-0.14326 -0.14271,-0.29734 -0.2067,-0.46303c-1.26842,-3.28379 2.01536,-4.5522 2.01536,-4.5522c3.87695,-1.49391 10.16414,-5.87844 14.58193,-4.18929c0.19754,-0.01845 0.39426,-0.03535 0.59,-0.05076c0.83128,0.69643 1.59692,1.40441 2.30174,2.12671c0.33555,-1.01559 1.1789,-2.29186 3.29852,-2.29186c3.52024,0 3.52025,3.52026 3.52025,3.52026v1.2261c-0.00097,3.29681 -0.12313,6.58222 -0.19562,9.87345c0.47514,2.07822 0.76914,4.29593 0.93429,6.6836l-0.04593,0.11794h0.0479v4.16872c0,1.94418 -1.57607,3.52026 -3.52025,3.52026c-1.63376,0 -3.00758,-1.11298 -3.40462,-2.62209l-0.52536,-1.82639c-2.96852,2.08318 -6.76335,3.1688 -10.56478,2.97277zM415.45901,201.80443c-4.88725,1.47352 -7.97991,4.13865 -8.06081,9.42841c-0.02643,1.72756 -0.64062,2.91732 1.18418,3.82444c2.80953,1.39667 8.90274,-0.85404 10.52498,-3.37509c1.80135,-2.79937 -1.49112,-6.01137 -2.71946,-7.85781c-0.40303,-0.60584 -0.4898,-1.46999 -0.9289,-2.01995z" fill="#000000"/><path d="M461.9309,224.75397c-3.48695,0.48304 -3.96999,-3.00392 -3.96999,-3.00392l-0.36656,-2.6968c-0.89583,-4.41781 -0.72003,-9.95141 -2.75292,-14.03056c-3.20734,-6.43577 -9.83339,-7.95582 -13.90861,-1.84866c-3.31748,4.9716 -3.35756,11.93291 -2.92409,17.60211c0,0 0.2631,3.5104 -3.2473,3.77349c-3.5104,0.26309 -3.7735,-3.2473 -3.7735,-3.2473c-0.80086,-10.88401 2.63255,-32.47795 18.52553,-29.16027c1.70056,0.355 3.13434,1.51877 4.59471,2.45964c1.48982,0.95984 2.994,1.95172 4.22753,3.22422c5.12234,5.28422 4.78822,13.09994 6.15814,19.8252l0.44099,3.13285c0,0 0.48304,3.48695 -3.00392,3.96999z" fill="#000000"/><path d="M492.17346,214.78162c0.64553,0.13418 1.14505,0.36416 1.53057,0.6493c1.28719,-0.14937 2.45362,-0.35596 4.099,-0.86948c1.99198,-0.6217 4.16003,-1.04663 5.81579,-2.31664c1.43021,-1.09701 1.53069,-2.86622 1.42467,-4.45774c-0.39488,-5.92756 -5.41353,-10.17181 -5.60452,-15.90698c-0.28033,-8.41748 9.25497,-16.38323 14.45626,-21.99977c0,0 2.39226,-2.58249 4.97474,-0.19023c2.58249,2.39226 0.19022,4.97476 0.19022,4.97476c-3.14801,3.39731 -6.65205,6.90787 -9.41524,10.64114c-0.44913,0.6068 -3.26842,4.65222 -3.17156,6.28131c0.20593,3.46364 3.93166,6.87266 4.78993,10.31216c0.46562,1.86598 0.76771,3.78874 0.81847,5.71126c0.30213,11.44329 -11.33003,14.10671 -20.4521,15.10764l-3.61919,-5.20658c0,0 0.71643,-3.44658 4.163,-2.73014z" fill="#000000"/><path d="M389.77435,221.59232c-1.11968,-1.12731 -1.2252,-2.25117 -1.00392,-3.14504c-1.69802,-3.63572 -3.04213,-7.30364 -4.48089,-11.08448c-1.38504,-3.63969 -3.52541,-7.23821 -4.72874,-11.00727c-0.70998,7.52646 -1.69718,14.75961 -1.30174,22.57906c0,0 0.177,3.5158 -3.3388,3.69279c-3.5158,0.17699 -3.69279,-3.33882 -3.69279,-3.33882c-0.49478,-9.87255 1.13438,-18.87203 1.73062,-28.5975c0.41678,-6.79817 -0.52531,-15.54807 4.36187,-21.02635c5.88288,-6.59443 19.56652,-8.03012 23.62497,1.7275c1.90095,4.57038 -0.1901,8.39125 -1.52048,12.60355c-3.0206,2.68386 -6.37868,5.38232 -10.28493,6.41595c-1.20167,0.31797 -2.45396,0.50548 -3.69688,0.48892c-0.4305,-0.00573 -1.26051,-0.97398 -1.16688,-0.55374c0.17912,0.80384 1.12236,1.23553 1.4837,1.97559c1.21778,2.49411 1.97904,5.18811 3.07808,7.73677c2.44317,5.66575 4.28864,11.45568 7.07254,16.9791l-1.15738,4.57086c0,0 -2.49761,2.48073 -4.97835,-0.01688zM380.14617,185.24824c1.15033,-0.50001 2.52116,-0.7755 3.6484,-1.1925c4.15713,-1.53787 6.06112,-0.83781 9.71894,-3.88481c0.35965,-1.30252 1.54251,-4.41885 0.94833,-6.03317c-2.10953,-5.73141 -11.80058,-2.12615 -13.19513,2.26684c-0.88089,2.77487 -1.05488,5.82106 -1.12053,8.84364z" fill="#000000"/><path d="M477.65966,220.5558c-1.08157,-1.8602 -0.36496,-3.24446 0.35565,-4.03959c-0.38828,-5.90044 -0.77657,-11.80087 -1.16485,-17.70131c-3.74477,0.02633 -7.48514,0.16188 -11.29003,0.41227c0,0 -3.51265,0.23116 -3.7438,-3.2815c-0.23116,-3.51266 3.2815,-3.7438 3.2815,-3.7438c3.79393,-0.24966 7.53093,-0.38918 11.26967,-0.42361c-0.20441,-4.28388 0.03835,-8.3005 2.19651,-12.55471c0,0 1.65349,-3.10775 4.76124,-1.45426c3.10775,1.65349 1.45426,4.76125 1.45426,4.76125c-1.86158,3.26082 -1.63258,5.87291 -1.35081,9.30606c1.348,0.03426 2.70093,0.08159 4.06152,0.14178l2.07677,-0.15797c0,0 3.51264,-0.23115 3.7438,3.2815c0.23116,3.51266 -3.2815,3.74381 -3.2815,3.74381l-2.85021,0.16628c-1.09375,-0.04837 -2.18194,-0.08818 -3.26623,-0.11929c0.4201,6.36934 0.83643,12.73893 1.25558,19.10833l-2.69641,3.82861c0,0 -3.04324,1.76942 -4.81266,-1.27381z" fill="#000000"/><g><path d="M614.67331,182.90952c-2.43647,8.26415 -10.70063,5.82769 -10.70063,5.82769l-1.05142,-0.83329c-23.37092,1.30252 -47.51988,0.27917 -70.8824,-1.05942c-1.11595,-0.03785 -2.20189,-0.29355 -3.20145,-0.73745c-2.37301,-0.94647 -5.26715,-3.10859 -5.12315,-8.01717c0.00379,-0.23424 0.01721,-0.4673 0.03997,-0.69862c0.41742,-4.90053 3.54481,-6.71753 6.01247,-7.38531c0.00257,-0.00079 0.00515,-0.00161 0.00772,-0.0024c1.08421,-0.33693 2.18462,-0.4489 3.25094,-0.3624c22.71063,1.30832 46.20708,2.35515 68.92589,1.05841l6.89439,1.50934c0,0 8.26414,2.43647 5.82767,10.70063z" fill="#008102"/><path d="M568.95305,226.39766c-8.22771,2.55686 -10.78458,-5.67084 -10.78458,-5.67084l-1.02376,-5.64185c2.38987,-22.89577 7.74429,-45.67875 5.78271,-68.76955c0,0 -0.71115,-8.58646 7.8753,-9.29757c8.58646,-0.71112 9.29758,7.8753 9.29758,7.8753c1.9639,24.26957 -3.32625,47.92015 -5.81629,71.97367l0.33987,-1.25371c0,0 2.55688,8.2277 -5.67083,10.78455z" fill="#008102"/><path d="M610.807,179.04321c-2.43647,8.26415 -10.70063,5.82769 -10.70063,5.82769l-1.05143,-0.83329c-23.37092,1.30252 -47.51987,0.27916 -70.88239,-1.05942c-1.11595,-0.03785 -2.20189,-0.29355 -3.20145,-0.73745c-2.37301,-0.94647 -5.26715,-3.10859 -5.12315,-8.01716c0.00379,-0.23424 0.01722,-0.46731 0.03998,-0.69864c0.41742,-4.90053 3.54477,-6.71752 6.01244,-7.38529c0.00257,-0.00079 0.00516,-0.00161 0.00773,-0.00241c1.08421,-0.33693 2.18463,-0.44891 3.25094,-0.36241c22.71063,1.30832 46.20708,2.35516 68.92589,1.05842l6.8944,1.50934c0,0 8.26414,2.43648 5.82767,10.70065z" fill="#00ff05"/><path d="M565.08672,222.53136c-8.22771,2.55686 -10.78457,-5.67084 -10.78457,-5.67084l-1.02376,-5.64185c2.38987,-22.89577 7.7443,-45.67875 5.78271,-68.76955c0,0 -0.71115,-8.58647 7.87531,-9.29758c8.58646,-0.71112 9.29758,7.8753 9.29758,7.8753c1.9639,24.26957 -3.32626,47.92017 -5.8163,71.97368l0.33987,-1.25371c0,0 2.55687,8.2277 -5.67084,10.78455z" fill="#00ff05"/></g><g fill="#000000"><path d="M-69.43229,170.2906c3.75,0 3.75,3.75 3.75,3.75v0.66667c-0.04906,6.03811 -2.13126,11.33063 -3.42469,17.15604c-1.25719,5.66216 -2.3195,11.10496 -4.08455,16.64571c-0.89099,2.79693 -2.07911,5.4928 -2.985,8.28494c-0.35,1.07877 -0.12166,2.46457 -0.91214,3.27783c-0.19672,0.20239 -0.403,0.39311 -0.61714,0.57421l0.15436,0.12863l-1.64834,1.978c-0.68775,0.83725 -1.73109,1.37131 -2.89916,1.37131c-1.93054,0 -3.52036,-1.45882 -3.72722,-3.33423l-0.32716,-2.61731l0.01707,-0.00214l-0.02253,-0.04383c-0.74731,-7.49678 -1.99711,-14.94721 -3.55309,-22.32161c-1.75651,6.19852 -4.15879,12.25702 -6.52053,18.15901c-1.35057,4.32039 -1.8578,13.8741 -9.6725,11.52551c-3.5847,-1.07733 -3.45279,-7.80085 -4.17293,-10.56989c-1.04497,-4.01804 -3.10934,-7.82379 -4.28823,-11.83041c-2.19245,-7.45144 -3.39952,-15.73645 -7.32212,-22.52126c0,0 -1.86052,-3.25591 1.39539,-5.11643c3.25591,-1.86052 5.11643,1.3954 5.11643,1.3954c5.18686,9.16259 6.24213,20.07489 9.91597,29.86118c0.66857,1.78091 1.29495,3.458 1.82333,5.1774c0.04678,-0.14469 0.09293,-0.28955 0.13825,-0.43463c4.32387,-10.81395 8.8056,-22.02525 8.8056,-33.81929l0.24928,-0.36378l-0.18238,-0.04053l0.65064,-2.9279c0.34411,-1.71597 1.85947,-3.00861 3.67673,-3.00861c1.78463,0 3.27809,1.24664 3.65706,2.9166l0.64764,2.59056l-0.14102,0.03526c0.07759,0.13705 0.15265,0.27567 0.22489,0.41607c0.4067,0.79039 -0.1061,1.78413 0,2.66667c0.26942,2.24098 1.06819,4.38604 1.59091,6.58178c1.52074,6.38799 2.86267,12.83909 3.90751,19.33517c1.892,-6.0777 2.92306,-12.1833 4.47498,-18.36828c1.07902,-4.30031 2.60429,-8.27028 2.5547,-12.75716v-0.66667c0,0 0,-3.75 3.75,-3.75z"/><path d="M10.06091,195.00089c3.13298,0.58438 5.98419,2.06128 8.08181,5.15948c4.86956,7.19238 0.20507,21.47209 -9.26172,22.334c-1.95755,0.17822 -3.83957,-0.91258 -5.66081,-1.6521c-8.34005,-3.38652 -14.32669,-13.46635 -7.64742,-21.73344c0.31497,-0.38983 0.64087,-0.73837 0.97691,-1.05214c0.42412,-2.34497 3.03431,-2.75432 3.03431,-2.75432c1.20592,-0.18569 2.44383,-0.35566 3.68838,-0.47067c0.3786,-0.11515 0.76122,-0.23272 1.14726,-0.35733l1.66855,-0.5529c0,0 2.52485,-0.83595 3.97274,1.07944zM5.0204,201.86128c-1.37968,0.39811 -3.09493,0.98214 -3.74368,1.77163c-3.70678,4.51099 2.07439,11.79783 6.98741,11.60736c4.04551,-0.15685 5.43426,-8.45579 3.75813,-11.13747c-1.38751,-2.21992 -4.26494,-2.47987 -7.00188,-2.24152z"/><path d="M-7.29561,199.34719c-1.67705,3.3541 -5.03115,1.67705 -5.03115,1.67705l-0.12142,-0.29972c-3.94767,-0.5053 -11.26882,0.20354 -9.27911,6.19226c0.27953,0.84133 1.5861,2.88542 2.15945,3.53562c2.18563,2.47853 7.45002,3.15971 10.4943,3.91304c0,0 3.63804,0.90951 2.72853,4.54755c-0.90951,3.63804 -4.54754,2.72852 -4.54754,2.72852c-6.30418,-1.58978 -12.74598,-3.0497 -16.30314,-9.03709c-0.66537,-1.11996 -1.33171,-2.26762 -1.70978,-3.51425c-0.36623,-1.20761 -0.48906,-2.49144 -0.49424,-3.75335c-0.0409,-9.96725 9.61476,-13.06692 17.88179,-12.05438l2.54525,1.03361c0,0 3.3541,1.67705 1.67705,5.03115z"/><path d="M-44.73304,218.86271c-0.33333,4.81576 -12.88894,7.65127 -19.60933,3.04216c-3.94581,-2.7062 -3.74719,-9.58536 -4.224,-13.70883c0.49919,-4.25012 0.40611,-8.61074 2.93043,-12.36353c4.15146,-6.17181 15.9723,-8.08102 21.07417,-1.98779c3.99862,4.77561 1.61521,12.36712 -3.60088,15.05032c-4.56318,2.34734 -13.10919,-0.76235 -12.29619,4.30436c0.61034,3.80367 5.6881,2.42021 9.51067,1.94226c0,0 6.47407,-0.02 6.21513,3.72105zM-60.32672,202.69932c2.93999,0.65908 5.9588,0.47365 8.85662,-0.5356c1.17523,-0.40931 1.87222,-2.62338 1.06579,-3.61635c-0.88067,-1.08439 -3.82609,-0.64413 -4.84571,-0.60856c-3.22312,0.1124 -4.4798,2.21968 -5.0767,4.76052z"/><path d="M-34.70938,223.39456c-3.48542,-0.45462 -3.27776,-3.75007 -3.23804,-4.16141c-1.13012,-4.8823 -0.61296,-9.71622 -0.73081,-14.72798c-0.09987,-4.24708 -0.32541,-8.06329 0.21802,-12.27417c0,0 0.48502,-3.7185 4.20352,-3.23348c3.7185,0.48502 3.23348,4.20352 3.23348,4.20352c-0.51085,3.86991 -0.24357,7.28325 -0.15563,11.20809c0.10104,4.50948 -0.66913,9.22303 0.64962,13.58688l0.02338,2.16507c0,0 -0.48503,3.7185 -4.20353,3.23348z"/><path d="M48.76696,217.19604c0,-0.40276 0.06349,-0.7907 0.18102,-1.15434c-0.00072,0.00002 -0.00144,0.00006 -0.00217,0.00008c0.03605,-3.78099 0.15192,-7.58473 -0.46377,-11.24505c-0.37668,-2.23941 -0.73782,-3.84159 -1.49007,-5.98791c-0.23012,-0.65658 -0.75074,-1.27186 -1.06873,-1.90616c-0.75904,1.11117 -1.72603,2.10234 -2.25164,3.33721c-0.1831,0.43017 -0.36705,0.86012 -0.55242,1.28952h0.14778v3c0,2.07107 -1.67893,3.75 -3.75,3.75c-1.78463,0 -3.27809,-1.24663 -3.65706,-2.91659l-0.57175,-2.28698c-0.75472,-1.46775 -1.61019,-2.88249 -2.36044,-4.35258c-0.24544,-0.48094 -0.17213,-1.41165 -0.71027,-1.45584c-1.16767,-0.09588 -1.58468,4.17484 -1.64301,4.70162c-0.69245,6.25301 0.64903,12.18412 -1.54623,18.21041c0,0 -1.31672,3.51124 -4.82795,2.19452c-3.51123,-1.31671 -2.19452,-4.82795 -2.19452,-4.82795c2.80444,-7.18641 -1.41618,-15.82577 2.90982,-22.85569c2.83208,-4.60225 7.65216,-6.71925 12.43067,-2.95965c0.64608,0.50832 1.04371,1.24463 1.42061,1.99735c2.98846,-4.49791 6.66939,-7.37236 11.91272,-3.66402c1.05948,0.74931 2.86043,4.77119 3.3624,6.18595c2.22034,6.2578 2.15439,12.59201 2.2658,19.00674c0.50131,1.23262 0.18058,2.51554 0.18058,2.51554l-0.66667,2.66667c0,0 -0.90951,3.63804 -4.54755,2.72852c-3.63804,-0.90951 -2.72852,-4.54754 -2.72852,-4.54754l0.2466,-0.98642c-0.01667,-0.14348 -0.02523,-0.28945 -0.02523,-0.43741z"/><path d="M82.26696,216.52938c-0.33334,4.81576 -12.88894,7.65127 -19.60933,3.04216c-3.94581,-2.7062 -3.7472,-9.58535 -4.22401,-13.70882c0.49919,-4.25012 0.40611,-8.61074 2.93043,-12.36353c4.15146,-6.17181 15.9723,-8.08102 21.07417,-1.98778c3.99861,4.77561 1.6152,12.36711 -3.60089,15.05031c-4.56318,2.34734 -13.10919,-0.76235 -12.29618,4.30436c0.61034,3.80367 5.68809,2.42021 9.51066,1.94226c0,0 6.47408,-0.02 6.21513,3.72105zM66.67328,200.36598c2.93998,0.65908 5.9588,0.47365 8.85663,-0.53561c1.17523,-0.40931 1.87222,-2.62338 1.06579,-3.61635c-0.88067,-1.08439 -3.8261,-0.64413 -4.84572,-0.60856c-3.22312,0.1124 -4.47979,2.21968 -5.07669,4.76052z"/></g><g fill="#000000"><path d="M114.13346,220.22836c-3.69897,0.61649 -4.31547,-3.08248 -4.31547,-3.08248l-0.38435,-2.6165c0,-1.88879 0.02154,-3.81726 0.02648,-5.76326c-2.66795,-0.05102 -5.30965,-0.31991 -7.85265,-0.93204c0,0 -3.63804,-0.90951 -2.72852,-4.54755c0.90951,-3.63804 4.54754,-2.72852 4.54754,-2.72852c1.88014,0.49462 3.86897,0.71956 5.89504,0.77364c-0.18107,-3.60172 -0.58244,-7.1677 -1.44258,-10.55943c0,0 -0.90951,-3.63804 2.72852,-4.54755c3.63804,-0.90951 4.54755,2.72852 4.54755,2.72852c0.95687,3.87386 1.40663,7.91782 1.61485,11.99314c1.34568,-0.14441 2.66904,-0.31139 3.94864,-0.47134l1.79847,-0.02895c0,0 3.75,0 3.75,3.75c0,3.75 -3.75,3.75 -3.75,3.75l-0.86821,-0.02896c-1.54382,0.19298 -3.11805,0.37672 -4.70711,0.52432c0.00601,2.0489 -0.00802,4.08417 -0.00802,6.08798l0.28231,1.38351c0,0 0.61649,3.69898 -3.08248,4.31547z"/><path d="M136.86329,199.41951c-1.56845,2.73792 -1.56083,5.80317 -0.33906,9.66057c0.26028,0.82177 1.41228,3.42096 2.38949,3.67116c4.87154,1.24726 10.01643,-1.85026 12.04999,-6.22798c-0.03224,-0.94552 0.50395,-4.7191 -0.09299,-5.46886c-2.31842,-2.91198 -7.26543,-2.79561 -10.30968,-4.04785l-0.37642,1.00473c0,0 -1.38879,1.66655 -3.32133,1.40823zM140.08974,190.08787c4.9589,-0.06084 9.16919,0.94262 13.57005,4.03165c1.18913,0.83467 2.60326,1.50595 3.41041,2.71393c2.04075,3.05419 1.30983,7.79201 1.24035,11.19781c-3.28018,7.86402 -9.50579,12.6921 -18.23977,11.98876c-1.23486,-0.09944 -2.55576,0.23262 -3.71025,-0.21674c-7.24897,-2.82147 -10.06728,-15.09816 -7.59022,-21.78182c1.21197,-3.27014 3.88979,-5.78848 6.46612,-7.95837c0,0 2.55168,-2.1264 4.85331,0.02477z"/></g></g></g></svg>