<svg version="1.1" xmlns="http://www.w3.org/2000/svg" xmlns:xlink="http://www.w3.org/1999/xlink" width="261.33333" height="261.33333" viewBox="0,0,261.33333,261.33333"><g transform="translate(-109.33334,-49.33335)"><g data-paper-data="{&quot;isPaintingLayer&quot;:true}" fill-rule="nonzero" stroke-linejoin="miter" stroke-miterlimit="10" stroke-dasharray="" stroke-dashoffset="0" style="mix-blend-mode: normal"><path d="M109.33335,310.66668v-261.33333h261.33333v261.33333z" fill="none" stroke="none" stroke-width="0" stroke-linecap="butt"/><path d="M135.68302,226.92381c0,-9.84001 0,-74.37582 0,-93.05558c0,-3.33306 0.9863,-5.05734 5.76529,-5.05734c8.01202,0 36.69071,0 36.69071,0c0,0 16.30907,-25.10744 44.66915,-41.17745c1.31864,-0.7472 2.8624,-0.55143 2.8624,0.96419c0,64.25915 0,160.9187 0,180.2245c0,1.7459 -1.17792,2.77518 -2.70684,1.93224c-11.86146,-6.53955 -31.04462,-32.55295 -39.73075,-37.34186c-3.82924,-2.11116 -6.39205,-2.80845 -10.7647,-2.80845c-6.48667,0 -23.63514,0 -33.25629,0c-4.51881,0 -3.52896,-3.68025 -3.52896,-3.68025z" fill="#000000" stroke="#000000" stroke-width="5" stroke-linecap="butt"/><path d="M177.98243,180.5c0,-18.2254 14.7746,-33 33,-33c18.2254,0 33,14.7746 33,33c0,18.2254 -14.7746,33 -33,33c-18.2254,0 -33,-14.7746 -33,-33z" fill="#000000" stroke="#000000" stroke-width="5" stroke-linecap="butt"/><path d="M253.98243,136.5l60,-60" fill="none" stroke="#000000" stroke-width="10" stroke-linecap="round"/><path d="M265.55602,177.5h84.85281" fill="none" stroke="#000000" stroke-width="10" stroke-linecap="round"/><path d="M255.98243,218.5l60,60" fill="none" stroke="#000000" stroke-width="10" stroke-linecap="round"/></g></g></svg>