<svg version="1.1" xmlns="http://www.w3.org/2000/svg" xmlns:xlink="http://www.w3.org/1999/xlink" width="80" height="80" viewBox="0,0,80,80"><g transform="translate(-200,-140)"><g data-paper-data="{&quot;isPaintingLayer&quot;:true}" fill="none" fill-rule="nonzero" stroke-linejoin="miter" stroke-miterlimit="10" stroke-dasharray="" stroke-dashoffset="0" style="mix-blend-mode: normal"><path d="M217.59456,204.45542c0.07085,-0.62009 -0.00814,-1.15009 -0.00814,-1.15009l-0.1617,-30.91669c0,0 -0.2086,-0.82526 0.74659,-1.83221c7.74837,-8.16827 12.05954,-12.82067 20.2282,-20.56863c0.93742,-0.88914 2.09504,-0.59744 2.09504,-0.59744c0,0 9.89931,0 16.5,0c3.57821,0 5.6,2.48685 5.6,6.06506c0,6.96432 0,35.23883 0,48.4c0,3.92084 -2.07916,6.8 -6,6.8c-5.30121,0 -23.35196,0 -33,0c-3.72692,0 -6.4,-2.69921 -6,-6.2z" stroke="#000000" stroke-width="4" stroke-linecap="butt"/><path d="M240.46122,150.12209c0,0 0,13.29998 0,17.4c0,2.97187 -1.82813,5.2 -4.8,5.2c-3.93255,0 -17,0 -17,0" stroke="#000000" stroke-width="4" stroke-linecap="round"/><path d="M200,220v-80h80v80z" stroke="none" stroke-width="0" stroke-linecap="butt"/></g></g></svg>