<svg version="1.1" xmlns="http://www.w3.org/2000/svg" xmlns:xlink="http://www.w3.org/1999/xlink" width="114.5" height="114.5" viewBox="0,0,114.5,114.5"><g transform="translate(-182.75,-122.75)"><g data-paper-data="{&quot;isPaintingLayer&quot;:true}" fill="none" fill-rule="nonzero" stroke-linejoin="miter" stroke-miterlimit="10" stroke-dasharray="" stroke-dashoffset="0" style="mix-blend-mode: normal"><path d="M206.8125,164c0,-18.08733 14.66267,-32.75 32.75,-32.75c18.08733,0 32.75,14.66267 32.75,32.75c0,18.08733 -14.66267,32.75 -32.75,32.75c-18.08733,0 -32.75,-14.66267 -32.75,-32.75z" stroke="#000000" stroke-width="10" stroke-linecap="butt"/><path d="M198.5625,228.75c0,0 3.14812,-25.3487 41.625,-25.12596c40.22022,0.23283 41.25,24.8996 41.25,24.8996" stroke="#000000" stroke-width="10" stroke-linecap="round"/><path d="M255.86328,208.73828c0,4.00406 -7.16344,7.25 -16,7.25c-8.83656,0 -16,-3.24594 -16,-7.25c0,-4.00406 7.16344,-7.25 16,-7.25c8.83656,0 16,3.24594 16,7.25z" stroke="#000000" stroke-width="10" stroke-linecap="butt"/><path d="M182.75,237.25v-114.5h114.5v114.5z" stroke="none" stroke-width="0" stroke-linecap="butt"/></g></g></svg>