<svg version="1.1" xmlns="http://www.w3.org/2000/svg" xmlns:xlink="http://www.w3.org/1999/xlink" width="388.66419" height="85.4144" viewBox="0,0,388.66419,85.4144"><g transform="translate(-34.1679,-135.2928)"><g data-paper-data="{&quot;isPaintingLayer&quot;:true}" fill-rule="nonzero" stroke="none" stroke-width="0.5" stroke-linecap="butt" stroke-linejoin="miter" stroke-miterlimit="10" stroke-dasharray="" stroke-dashoffset="0" style="mix-blend-mode: normal"><path d="M55.32446,214.13521c-2.7019,1.36003 -4.06193,-1.34188 -4.06193,-1.34188l-0.13002,-0.25981c-2.60684,-4.92267 -5.82931,-9.33386 -8.31134,-14.33078c-0.44539,-0.89668 -1.2595,-1.76202 -1.80839,-2.65458c-0.69185,5.83348 -1.07214,11.72605 -0.5811,17.52865c0,0 0.25289,3.0143 -2.76139,3.2672c-3.01429,0.2529 -3.26719,-2.76139 -3.26719,-2.76139c-0.75372,-9.05681 0.42959,-18.28419 1.77268,-27.249c0.6866,-4.58291 1.3328,-10.67096 5.22903,-13.93869c5.74721,-4.82013 17.29004,-0.03186 18.25088,7.58283c0.51277,4.0637 -1.4248,5.94309 -3.40554,8.89947c-2.32933,2.96828 -2.26538,3.52187 -5.67557,5.33377c-0.81012,0.43043 -1.6598,0.8514 -2.55115,1.06682c0.64375,0.8277 1.22233,2.13133 1.62784,2.91463c2.05724,3.97385 4.71677,7.52863 6.8269,11.5085l0.18816,0.37235c0,0 1.36003,2.7019 -1.34187,4.06193zM41.48082,191.9103c0.95737,-0.83785 2.38243,-1.37438 3.46102,-2.04824c3.10121,-1.93752 4.08852,-1.43872 6.4187,-4.54735c0.59569,-0.83116 2.50199,-2.93641 2.32227,-4.37546c-0.27078,-2.16823 -6.2281,-6.36484 -8.16075,-4.11173c-2.54612,2.96831 -2.81118,6.72365 -3.36272,10.39864c-0.23305,1.55283 -0.4629,3.11518 -0.67852,4.68415z" fill="#000000"/><path d="M78.24415,190.54234c3.02488,0 3.02488,3.02489 3.02488,3.02489l-0.00939,3.39888c-0.67528,4.25479 -1.66301,7.86856 -3.23755,11.41698l0.49681,0.08699l-0.62754,3.58414c-0.22623,1.44689 -1.47805,2.55385 -2.98843,2.55385c-1.67059,0 -3.02488,-1.35429 -3.02488,-3.02489v-0.54694c-0.18561,0.14624 -0.37454,0.29146 -0.56637,0.43571c-4.10126,3.084 -9.35975,5.30348 -12.74712,-0.49417c-3.59583,-6.15444 1.58922,-13.8034 6.97246,-16.67755c1.68654,-0.90045 3.62555,-2.05112 5.49415,-1.64668c1.86838,0.40439 3.21675,1.57856 4.19529,3.14864l-0.00718,-2.23497c0,0 0,-3.02489 3.02488,-3.02489zM66.57834,200.96764c-1.20894,1.22442 -2.32336,2.57361 -2.65619,3.12466c-0.33082,0.54772 -0.75696,4.52822 0.37027,4.58646c1.41998,0.07336 6.39974,-3.44507 6.4724,-4.8955c0.07348,-1.46696 -2.4024,-2.31883 -4.18648,-2.81562z" fill="#000000"/><path d="M102.17063,214.76649c-3.02375,0.08276 -3.10651,-2.941 -3.10651,-2.941l0.03995,-1.38092c-0.8107,-3.12161 -0.92561,-8.89185 -3.36614,-11.30673c-1.97727,-1.95647 -6.19682,-1.06719 -7.49272,1.15086c-1.71373,2.93321 -1.62954,7.63914 -1.1046,10.81264c0,0 0.45968,2.98975 -2.53007,3.44944c-2.98975,0.45969 -3.44944,-2.53006 -3.44944,-2.53006c-0.6447,-4.45027 -0.70695,-10.9615 1.95049,-14.93291c3.57884,-5.34841 11.78793,-6.90225 16.77654,-2.35172c3.63561,3.31635 3.91511,9.75207 5.07078,14.18514l0.15271,2.73875c0,0 0.08275,3.02375 -2.941,3.10651z" fill="#000000"/><path d="M119.33763,192.87378c0.29949,0.05471 0.6887,0.16105 1.07012,0.3678c0.51098,-4.45013 0.62449,-8.81617 0.46428,-13.57698c0,0 -0.10146,-3.02318 2.92172,-3.12464c3.02319,-0.10146 3.12465,2.92173 3.12465,2.92173c0.29763,8.89208 -0.23919,17.25741 -2.3073,25.92644c-1.30268,5.46054 -2.12026,9.43621 -8.51208,9.75504c-12.00106,0.59862 -16.3499,-19.85442 -4.65951,-23.63039c2.55761,-0.8261 5.52958,0.48557 7.89812,1.36101zM119.57665,198.75639c-0.44243,0.10921 -0.77283,0.10921 -0.77283,0.10921l-1.19862,-0.18422c-0.23873,-0.08974 -3.70002,-1.55679 -4.48377,-1.35734c-3.99405,1.01645 -2.30935,8.53017 -0.56107,10.49433c0.57528,0.64631 4.10894,2.18489 4.81464,1.47709c0.38876,-0.38992 0.0258,-1.11031 0.1616,-1.64392c0.64781,-2.54558 1.28511,-5.09595 1.80305,-7.6711c0.08254,-0.41041 0.16152,-0.81832 0.237,-1.22405z" fill="#000000"/><path d="M141.19063,192.53598c2.60344,0.48561 4.97274,1.71289 6.71582,4.28743c4.0465,5.97672 0.17041,17.84287 -7.6963,18.5591c-1.62669,0.1481 -3.19061,-0.75833 -4.70402,-1.37286c-6.93041,-2.81413 -11.90519,-11.19027 -6.35485,-18.06005c0.26173,-0.32394 0.53255,-0.61357 0.81179,-0.87431c0.35243,-1.94862 2.52145,-2.28879 2.52145,-2.28879c1.00209,-0.1543 2.03078,-0.29554 3.06497,-0.39112c0.31461,-0.09569 0.63256,-0.19338 0.95335,-0.29693l1.38653,-0.45945c0,0 2.0981,-0.69466 3.30127,0.89699zM137.00207,198.23682c-1.14649,0.33082 -2.57182,0.81614 -3.11092,1.47219c-3.08026,3.74854 1.72378,9.80376 5.8064,9.64548c3.36174,-0.13034 4.51576,-7.02659 3.12293,-9.25501c-1.15299,-1.84471 -3.54408,-2.06073 -5.81842,-1.86266z" fill="#000000"/><path d="M180.0662,215.98265c-2.76803,-1.21982 -1.5482,-3.98784 -1.5482,-3.98784l1.04483,-2.09605c-0.61226,-3.57434 -2.1503,-6.4243 -3.3889,-9.78053c-0.14823,-0.40167 0.27883,-1.35261 -0.14251,-1.27651c-1.42944,0.25816 -1.64357,2.4034 -2.59674,3.49948c-0.8533,0.98123 -1.69518,1.97231 -2.52871,2.97047l-2.04656,4.9671c-0.48086,1.2474 -1.75399,2.06731 -3.14623,1.91742c-1.61852,-0.17425 -2.80078,-1.59488 -2.69474,-3.20423l0.17959,-3.02263c-0.15364,-0.91545 -0.13616,-1.88255 -0.50148,-2.73409c-0.55771,-1.29996 -1.55425,-2.3669 -2.24255,-3.60269c-0.18417,-0.33067 0.01373,-1.10951 -0.36327,-1.07583c-0.54824,0.04898 -0.75828,0.79829 -1.12495,1.2088c-3.11829,3.49097 -3.12093,7.37939 -2.54667,11.83184c0,0 0.36523,3.00275 -2.63752,3.36798c-3.00275,0.36523 -3.36798,-2.63752 -3.36798,-2.63752c-0.52974,-4.58303 -0.74888,-9.37689 1.62888,-13.62166c1.45272,-2.5934 5.55149,-6.39069 8.79411,-6.15303c2.37083,0.17377 5.16762,4.16053 6.63646,6.77784c2.59737,-3.02221 7.35672,-6.69598 9.36575,-6.48488c1.97033,0.20703 3.20981,2.40766 4.41217,3.98227c2.92198,3.82666 3.80604,9.33649 4.29943,13.93572l-1.49634,3.67037c0,0 -1.21981,2.76803 -3.98784,1.54821z" fill="#000000"/><path d="M237.11696,215.52703c-7.55726,-0.38972 -10.13982,-8.06109 -8.01352,-14.53932c0.1267,-0.38603 0.27007,-0.75641 0.42891,-1.11176c-0.06322,-0.1231 -0.12263,-0.2555 -0.17762,-0.39787c-1.08993,-2.8217 1.73176,-3.91162 1.73176,-3.91162c3.33139,-1.28369 8.73385,-5.05123 12.52997,-3.59978c0.16974,-0.01586 0.33878,-0.03037 0.50698,-0.04361c0.7143,0.59843 1.37221,1.20678 1.97784,1.82744c0.28833,-0.87268 1.013,-1.96935 2.83435,-1.96935c3.02488,0 3.02488,3.02489 3.02488,3.02489v1.05356c-0.00083,2.83288 -0.1058,5.65598 -0.16809,8.48406c0.40828,1.78577 0.66091,3.69141 0.80282,5.74309l-0.03947,0.10134h0.04116v3.5821c0,1.67059 -1.35429,3.02489 -3.02488,3.02489c-1.40386,0 -2.58436,-0.95636 -2.92553,-2.25311l-0.45143,-1.56938c-2.55079,1.79004 -5.81162,2.72289 -9.07811,2.55444zM241.70349,197.85721c-4.19952,1.26617 -6.85698,3.55626 -6.9265,8.10165c-0.02271,1.48446 -0.55047,2.50679 1.01754,3.28627c2.41417,1.20013 7.64995,-0.73386 9.04391,-2.90015c1.54786,-2.40545 -1.28129,-5.16545 -2.33678,-6.75206c-0.34632,-0.52059 -0.42088,-1.26314 -0.79818,-1.73571z" fill="#000000"/><path d="M281.63589,217.5773c-2.99627,0.41506 -3.41133,-2.58121 -3.41133,-2.58121l-0.31498,-2.31731c-0.76976,-3.79614 -0.6187,-8.55105 -2.36553,-12.05619c-2.756,-5.53013 -8.44964,-6.83629 -11.9514,-1.58852c-2.85065,4.27199 -2.88509,10.25372 -2.51262,15.12516c0,0 0.22608,3.01642 -2.79034,3.24249c-3.01642,0.22607 -3.2425,-2.79034 -3.2425,-2.79034c-0.68816,-9.35242 2.2621,-27.90767 15.91864,-25.05685c1.46126,0.30505 2.69328,1.30505 3.94814,2.11352c1.28017,0.82477 2.57269,1.67707 3.63263,2.77051c4.40153,4.54063 4.11443,11.25653 5.29157,17.03541l0.37894,2.692c0,0 0.41506,2.99627 -2.58122,3.41133z" fill="#000000"/><path d="M307.62274,209.00825c0.5547,0.1153 0.98391,0.31291 1.31518,0.55793c1.10606,-0.12835 2.10834,-0.30587 3.52218,-0.74713c1.71166,-0.53422 3.57464,-0.89934 4.9974,-1.99064c1.22895,-0.94265 1.31529,-2.46289 1.22418,-3.83046c-0.33931,-5.09344 -4.65173,-8.74044 -4.81585,-13.66856c-0.24088,-7.23298 7.95261,-14.07779 12.42198,-18.90398c0,0 2.05562,-2.21908 4.2747,-0.16346c2.21908,2.05562 0.16346,4.27471 0.16346,4.27471c-2.70502,2.91924 -5.71598,5.93581 -8.09034,9.14373c-0.38593,0.52141 -2.80849,3.99756 -2.72527,5.39741c0.17695,2.97624 3.3784,5.90555 4.11589,8.86104c0.4001,1.6034 0.65968,3.25558 0.70329,4.90758c0.25961,9.833 -9.73567,12.12162 -17.57409,12.9817l-3.10991,-4.47391c0,0 0.61561,-2.96158 3.57719,-2.34595z" fill="#000000"/><path d="M219.63315,214.86056c-0.96212,-0.96867 -1.05279,-1.93438 -0.86265,-2.70247c-1.45908,-3.1241 -2.61404,-6.27588 -3.85034,-9.52468c-1.19014,-3.12752 -3.02931,-6.21965 -4.06331,-9.45833c-0.61007,6.46734 -1.45836,12.68265 -1.11856,19.40175c0,0 0.15209,3.02106 -2.86897,3.17314c-3.02106,0.15208 -3.17314,-2.86898 -3.17314,-2.86898c-0.42515,-8.48329 0.97475,-16.21637 1.48709,-24.57328c0.35813,-5.84153 -0.45139,-13.36015 3.74807,-18.06754c5.05505,-5.66646 16.81313,-6.90013 20.30048,1.4844c1.63345,3.92724 -0.16335,7.21044 -1.30652,10.82999c-2.59554,2.30619 -5.48108,4.62492 -8.83764,5.5131c-1.03257,0.27323 -2.10864,0.43435 -3.17666,0.42012c-0.36992,-0.00493 -1.08313,-0.83692 -1.00268,-0.47582c0.15391,0.69073 0.96442,1.06167 1.27491,1.69759c1.04641,2.14314 1.70055,4.45804 2.64493,6.64806c2.09937,4.86847 3.68515,9.84365 6.0773,14.58981l-0.99451,3.92765c0,0 -2.14615,2.13164 -4.2778,-0.01451zM211.35984,183.6308c0.98845,-0.42965 2.16639,-0.66637 3.135,-1.02469c3.57214,-1.32146 5.2082,-0.71991 8.3513,-3.33814c0.30904,-1.11923 1.32545,-3.79703 0.81488,-5.18419c-1.81268,-4.92489 -10.14001,-1.82696 -11.33832,1.94785c-0.75693,2.38439 -0.90644,5.00192 -0.96285,7.59917z" fill="#000000"/><path d="M295.15131,213.96989c-0.92938,-1.59843 -0.3136,-2.7879 0.3056,-3.47114c-0.33364,-5.07013 -0.66729,-10.14026 -1.00093,-15.21039c-3.21781,0.02262 -6.43184,0.1391 -9.70131,0.35425c0,0 -3.01835,0.19864 -3.21698,-2.81973c-0.19863,-3.01836 2.81973,-3.21698 2.81973,-3.21698c3.26005,-0.21453 6.47118,-0.33442 9.68381,-0.364c-0.17565,-3.68106 0.03296,-7.13246 1.88742,-10.78802c0,0 1.42082,-2.67043 4.09125,-1.24961c2.67043,1.42082 1.24962,4.09124 1.24962,4.09124c-1.59962,2.80195 -1.40285,5.04648 -1.16072,7.99652c1.1583,0.02943 2.32085,0.07011 3.48998,0.12183l1.78453,-0.13573c0,0 3.01835,-0.19863 3.21698,2.81973c0.19863,3.01836 -2.81973,3.21698 -2.81973,3.21698l-2.44913,0.14288c-0.93984,-0.04157 -1.8749,-0.07577 -2.80661,-0.1025c0.36099,5.47305 0.71873,10.94632 1.07889,16.41942l-2.31698,3.28984c0,0 -2.615,1.52043 -4.13543,-1.09456z" fill="#000000"/><g><path d="M422.42277,180.64996c-2.21911,7.5269 -9.74602,5.30779 -9.74602,5.30779l-0.95762,-0.75895c-21.28598,1.18632 -43.2806,0.25426 -64.55893,-0.96491c-1.01639,-0.03447 -2.00545,-0.26736 -2.91584,-0.67166c-2.16131,-0.86204 -4.79726,-2.83127 -4.66611,-7.30195c0.00345,-0.21335 0.01567,-0.42561 0.0364,-0.6363c0.38018,-4.46335 3.22857,-6.11826 5.47609,-6.72646c0.00234,-0.00072 0.00469,-0.00146 0.00703,-0.00218c0.98749,-0.30687 1.98973,-0.40886 2.96092,-0.33007c20.68459,1.19161 42.08491,2.14505 62.77696,0.96399l6.27933,1.37469c0,0 7.52689,2.21911 5.30778,9.74602z" fill="#008102"/><path d="M380.78125,220.25849c-7.49371,2.32876 -9.82248,-5.16494 -9.82248,-5.16494l-0.93243,-5.13853c2.17667,-20.85322 7.05342,-41.60372 5.26683,-62.63457c0,0 -0.64771,-7.82045 7.17274,-8.46813c7.82045,-0.64768 8.46814,7.17274 8.46814,7.17274c1.7887,22.10446 -3.02952,43.64516 -5.29742,65.55284l0.30955,-1.14187c0,0 2.32878,7.4937 -5.16493,9.82245z" fill="#008102"/><path d="M418.90138,177.12857c-2.21911,7.5269 -9.74602,5.30779 -9.74602,5.30779l-0.95763,-0.75895c-21.28598,1.18632 -43.28059,0.25426 -64.55892,-0.96491c-1.01639,-0.03447 -2.00545,-0.26736 -2.91584,-0.67166c-2.16131,-0.86204 -4.79726,-2.83127 -4.66611,-7.30194c0.00345,-0.21335 0.01568,-0.42562 0.03641,-0.63631c0.38018,-4.46335 3.22854,-6.11825 5.47607,-6.72645c0.00234,-0.00072 0.0047,-0.00146 0.00704,-0.00219c0.98749,-0.30687 1.98974,-0.40887 2.96092,-0.33008c20.68459,1.19161 42.08491,2.14506 62.77696,0.964l6.27934,1.37469c0,0 7.52689,2.21912 5.30778,9.74603z" fill="#00ff05"/><path d="M377.25984,216.7371c-7.49371,2.32876 -9.82247,-5.16494 -9.82247,-5.16494l-0.93243,-5.13854c2.17667,-20.85322 7.05342,-41.60371 5.26683,-62.63456c0,0 -0.64771,-7.82046 7.17274,-8.46814c7.82045,-0.64768 8.46814,7.17274 8.46814,7.17274c1.7887,22.10446 -3.02952,43.64517 -5.29742,65.55285l0.30955,-1.14187c0,0 2.32877,7.4937 -5.16494,9.82245z" fill="#00ff05"/></g></g></g></svg>