<svg version="1.1" xmlns="http://www.w3.org/2000/svg" xmlns:xlink="http://www.w3.org/1999/xlink" width="127.25" height="62.7402" viewBox="0,0,127.25,62.7402"><g transform="translate(-121.87852,-157.75319)"><g data-paper-data="{&quot;isPaintingLayer&quot;:true}" fill="none" fill-rule="nonzero" stroke="#000000" stroke-width="6.5" stroke-linecap="round" stroke-linejoin="miter" stroke-miterlimit="10" stroke-dasharray="" stroke-dashoffset="0" style="mix-blend-mode: normal"><path d="M138.78762,187.05294h23.30263"/><path d="M128.80078,209.54474c0,0 19.21223,-42.67395 21.30412,-47.32043c0.32026,-0.71135 1.05554,-0.47906 1.3758,0.23229c2.23239,4.95856 21.32008,47.3559 21.32008,47.3559"/><path d="M180.05078,201.9438c0,-8.52878 0,-32.8271 0,-37.82751c0,-1.83263 1.17443,-2.84621 2.96492,-3.07534c7.16403,-0.91678 24.82641,-1.77401 24.78508,12.07078c-0.04401,14.74319 -26.25,13.02109 -26.25,13.02109c0,0 26.08244,1.45953 25.75,12.0741c-0.34318,10.95745 -17.62579,11.65165 -24.48621,11.4944c-1.70301,-0.03904 -2.76379,0.77126 -2.76379,-7.75751z"/><path d="M236.24775,161.0625c0,0 -20.29453,-2.38697 -20.32197,23.125c-0.02959,27.50988 21.75,24.75 21.75,24.75"/><path d="M125.12852,217.2434h120.75"/></g></g></svg>