<svg version="1.1" xmlns="http://www.w3.org/2000/svg" xmlns:xlink="http://www.w3.org/1999/xlink" width="420.58103" height="420.58103" viewBox="0,0,420.58103,420.58103"><g transform="translate(-29.70949,30.29051)"><g data-paper-data="{&quot;isPaintingLayer&quot;:true}" fill-rule="nonzero" stroke-linejoin="miter" stroke-miterlimit="10" stroke-dasharray="" stroke-dashoffset="0" style="mix-blend-mode: normal"><path d="M29.7095,390.29052v-420.58103h420.58103v420.58103z" fill="none" stroke="none" stroke-width="0" stroke-linecap="butt"/><g><path d="M157.4119,373.00001c-60.97881,0 -110.4119,-49.43309 -110.4119,-110.4119v-165.1762c0,-60.97881 49.43309,-110.4119 110.4119,-110.4119h165.1762c60.97881,0 110.4119,49.43309 110.4119,110.4119v165.1762c0,60.97881 -49.43309,110.4119 -110.4119,110.4119z" fill="#b5b5b5" stroke="#757575" stroke-width="7.5" stroke-linecap="butt"/><path d="M48.50002,202.4837c0,0 0.43859,92.77973 68.04291,135.91668c59.14411,37.73866 206.95709,32.08332 206.95709,32.08332c0,0 -94.59397,10.86744 -182.66155,-0.59937c-24.53877,-3.19506 -33.07715,-9.73592 -45.48068,-16.12448c-17.62637,-9.07864 -32.72558,-32.57504 -39.68493,-54.64595c-14.18009,-44.97084 -7.17284,-96.63019 -7.17284,-96.63019z" fill="#989898" stroke="none" stroke-width="0" stroke-linecap="round"/><path d="M263.76543,-9.43396c0,0 60.07937,54.40757 87.63029,87.72968c28.24986,34.16746 79.82458,114.80257 79.82458,114.80257l-0.18679,34.47363c0,0 -65.24384,-88.58265 -101.64577,-128.17855c-36.77915,-40.00622 -117.90914,-110.64052 -117.90914,-110.64052z" fill="#dcdcdc" stroke="#dddddd" stroke-width="0.5" stroke-linecap="round"/><path d="M307.58375,-11.87358c0,0 47.44464,36.44254 68.8974,60.85703c21.09927,24.0122 58.7763,84.4431 58.7763,84.4431l-0.18679,27.20946c0,0 -44.33145,-65.83429 -70.20423,-94.86179c-24.85702,-27.88789 -82.10723,-76.02137 -82.10723,-76.02137z" fill="#dcdcdc" stroke="#dddddd" stroke-width="0.5" stroke-linecap="round"/><path d="M334.26752,-13.5c0,0 45.38965,13.78952 61.65753,30.26463c17.06961,17.28706 38.47068,71.1391 38.47068,71.1391l0.63776,19.77054c0,0 -30.44894,-50.15657 -48.89657,-69.9746c-18.75007,-20.14294 -62.7113,-49.92414 -62.7113,-49.92414z" fill="#dcdcdc" stroke="#dddddd" stroke-width="0.5" stroke-linecap="round"/><path d="M157.4119,373.00001c-60.97881,0 -110.4119,-49.43309 -110.4119,-110.4119v-165.1762c0,-60.97881 49.43309,-110.4119 110.4119,-110.4119h165.1762c60.97881,0 110.4119,49.43309 110.4119,110.4119v165.1762c0,60.97881 -49.43309,110.4119 -110.4119,110.4119z" fill="none" stroke="#757575" stroke-width="7.5" stroke-linecap="butt"/></g><path d="M176.70261,138.35849c0,21.17856 0.12218,45.373 -7.78361,59.36167c-8.07189,14.28257 -21.30031,16.13833 -33.71639,16.13833c-24.57667,0 -47.5,-32.69793 -47.5,-75.5c0,-35.3819 21.61428,-64.89264 40.21727,-74.17682c3.90135,-1.94705 4.02211,-1.98985 8.28273,-1.98985c9.4906,0 14.28727,6.84088 21.51071,15.65789c7.09144,8.6559 9.66662,20.67838 12.89353,34.03192c1.99801,8.26811 6.09576,16.42987 6.09576,26.47686z" fill="#ffffff" stroke="#000000" stroke-width="7.5" stroke-linecap="butt"/><path d="M90.03596,135.69182c0,-27.69474 6.55625,-36.53947 14.73149,-46.28421c2.82925,-3.37242 11.05202,-17.21579 14.60183,-17.21579c5.33704,0 7.95404,8.2664 10.79227,15.654c4.50439,11.7244 7.54107,27.31011 7.54107,50.17933c0,37.27922 -14.52622,56.16666 -28.33334,56.16666c-13.80712,0 -19.33333,-21.22078 -19.33333,-58.5z" fill="#000000" stroke="#000000" stroke-width="7.5" stroke-linecap="butt"/><path d="M393.99052,129.40525c0,0.73132 6.32446,27.1267 6.30683,27.85263c-0.91625,37.74053 -46.14318,53.31403 -76.30683,53.31403c-7.95851,0 -13.23313,-1.50893 -18.65643,-6.39415c-3.64048,-3.27929 -7.56702,-7.55243 -10.67815,-12.54328c-1.04657,-1.67889 -2.00086,-3.439 -2.82096,-5.26982c-2.65566,-5.92862 -5.93882,-13.26533 -7.34049,-20.31988c-2.36678,-11.91194 -1.83731,-24.25349 -1.83731,-36.63954c0,-7.15812 -1.14963,-14.06588 0.43071,-20.57155c1.62329,-6.68247 2.1251,-17.60736 5.32453,-23.27687c3.64272,-6.45503 11.88087,-12.84422 17.53371,-16.69746c7.40683,-5.04885 10.36109,-7.38117 17.90132,-8.54608c3.36901,-0.52049 10.58822,-1.07471 14.47639,-1.07471c8.52943,0 10.94415,6.08467 18.16958,10.40651c6.96722,4.16739 10.91532,11.9357 16.90344,18.54946c10.18559,11.2498 20.59365,23.57683 20.59365,41.21069z" fill="#ffffff" stroke="#000000" stroke-width="7.5" stroke-linecap="butt"/><path d="M334.10078,71.74095c2.82925,-3.37242 5.71868,-5.54913 9.26849,-5.54913c0.73615,0 11.08722,4.82394 11.7276,5.11449c4.00226,1.81588 25.95126,24.83758 28.39801,31.20618c4.50439,11.7244 10.20774,5.64345 10.20774,28.51267c0,0.71182 4.32804,14.75026 4.31755,15.44867c-0.12899,8.59134 -1.07653,17.75303 -2.7688,24.68618c-2.25175,9.22534 -5.82207,15.27557 -10.53704,18.2687c-6.5394,4.15131 -6.35997,6.76311 -12.34506,6.76311c-0.3585,0 -4.36804,3.31567 -4.69733,3.28063c-6.28089,-0.66834 -3.94998,-7.6607 -14.34048,-19.06957c-3.63422,-3.99041 -10.28207,-12.67569 -11.75358,-19.59185c-1.50624,-7.07937 -10.61488,-14.29543 -9.58352,-21.25384c0.19886,-1.34169 -4.10985,-7.92308 -5.00879,-15.76537c-1.57867,-13.7723 -1.06002,-42.30613 7.11521,-52.05087z" data-paper-data="{&quot;index&quot;:null}" fill="#000000" stroke="#000000" stroke-width="7.5" stroke-linecap="butt"/><path d="M144.00066,277.26144l192,1" fill="none" stroke="#000000" stroke-width="7.5" stroke-linecap="round"/><path d="M353.50066,300.26144c0,0 -6.52539,0.50947 -10.94239,-4.86861c-4.18886,-5.10031 -4.78023,-13.49885 -4.82188,-17.12261c-0.03597,-3.12928 4.2804,-15.23813 7.97239,-18.83487c4.6039,-4.48512 9.79188,-3.67391 9.79188,-3.67391" fill="none" stroke="#000000" stroke-width="7.5" stroke-linecap="round"/><path d="M123.50066,246.76144c0,0 6.81886,7.64653 12.86352,16.01512c3.63587,5.03372 7.62984,12.14778 7.89421,15.61762c0.06896,0.90515 -0.0118,1.93603 -0.22618,3.0424c-0.75008,3.87117 -3.13586,8.6665 -6.46642,12.23346c-4.25202,4.55382 -10.06514,7.09139 -10.06514,7.09139" fill="none" stroke="#000000" stroke-width="7.5" stroke-linecap="round"/><g stroke-width="5"><path d="M336.65013,71.77197v-43.58064h45.4858v43.58064z" fill="#00ff15" stroke="none" stroke-linecap="butt"/><path d="M336.90006,71.72029h-53.23339v-41.9869h55.48268" fill="#00ff15" stroke="#117500" stroke-linecap="round"/><path d="M339.14935,29.73339v-53.23339h41.9869v51.73386" data-paper-data="{&quot;index&quot;:null}" fill="#00ff15" stroke="#117500" stroke-linecap="round"/><path d="M381.13625,28.23385h53.23339v41.9869h-55.48269" data-paper-data="{&quot;index&quot;:null}" fill="#00ff15" stroke="#117500" stroke-linecap="round"/><path d="M378.88695,70.97052v56.98222h-41.98689v-56.23245" data-paper-data="{&quot;index&quot;:null}" fill="#00ff15" stroke="#117500" stroke-linecap="round"/><path d="M340.59971,-21.78219h38.28256v52.76122h53.00663v38.03716h-54.23363" fill="none" stroke="#84ff8a" stroke-linecap="round"/><path d="M336.90006,71.72029h-53.23339v-41.9869h55.48268" fill="none" stroke="#117500" stroke-linecap="round"/><path d="M339.14935,29.73339v-53.23339h41.9869v51.73386" data-paper-data="{&quot;index&quot;:null}" fill="none" stroke="#117500" stroke-linecap="round"/><path d="M381.13625,28.23385h53.23339v41.9869h-55.48269" data-paper-data="{&quot;index&quot;:null}" fill="none" stroke="#117500" stroke-linecap="round"/><path d="M378.88695,70.97052v56.98222h-41.98689v-56.23245" data-paper-data="{&quot;index&quot;:null}" fill="none" stroke="#117500" stroke-linecap="round"/></g></g></g></svg>