<svg version="1.1" xmlns="http://www.w3.org/2000/svg" xmlns:xlink="http://www.w3.org/1999/xlink" width="140.33333" height="113.66667" viewBox="0,0,140.33333,113.66667"><g transform="translate(-170.86667,-127.46666)"><g data-paper-data="{&quot;isPaintingLayer&quot;:true}" fill-rule="nonzero" stroke-linejoin="miter" stroke-miterlimit="10" stroke-dasharray="" stroke-dashoffset="0" style="mix-blend-mode: normal"><path d="M248.96181,151.22418l13,8l-11,14l11.05714,-14.54286l6.94286,-2.45714l3.4,-0.4l4.2,5.4l3.6,10.4l-0.2,7.8l-2.2,4.8l-6,4.6l2,0.8l-0.4,8.6l-3.6,4.4l-7.2,4.4l-9,2.8l-9.2,0.2c0,0 -16.1111,2.643 -22.94119,2.16305c-4.40205,-0.30934 -14.05881,-4.76305 -14.05881,-4.76305c0,0 10.46671,-0.61078 8,-1.2c-14.95009,-3.5711 -26.0018,-33.8782 -5.6,-59c0.73693,-0.90742 4.8147,0.62104 4.8147,0.62104l34.7853,10.37896z" fill="#009a2a" stroke="#000000" stroke-width="1" stroke-linecap="round"/><path d="M274.04181,187.25847c0,0 -2.24217,1.4604 -2.86212,1.51481c-1.87321,0.16442 -4.03406,-0.89344 -6.05572,-0.57102c-2.50018,0.39873 -5.80907,3.55256 -10.5381,4.40855c-6.18722,1.11992 -13.68693,-0.06663 -13.68693,-0.06663c0,0 -8.82647,-15.43328 8.81625,-19.04624c8.87487,-1.81743 14.75518,12.76052 14.75518,12.76052c0,0 -3.15807,-12.69424 5.1376,-13.98238c4.7464,-0.73702 4.43383,14.98238 4.43383,14.98238z" fill="#ffffff" stroke="#000000" stroke-width="1" stroke-linecap="round"/><path d="M248.47038,184.44894c0,3.19536 -1.11929,5.78571 -2.5,5.78571c-1.38071,0 -2.5,-2.59035 -2.5,-5.78571c0,-3.19536 1.11929,-5.78571 2.5,-5.78571c1.38071,0 2.5,2.59035 2.5,5.78571z" fill="#000000" stroke="#000000" stroke-width="1" stroke-linecap="butt"/><path d="M274.75609,183.63942c0,3.19536 -1.11929,5.78572 -2.5,5.78572c-1.38071,0 -2.5,-2.59036 -2.5,-5.78572c0,-3.19536 1.11929,-5.78572 2.5,-5.78572c1.38071,0 2.5,2.59036 2.5,5.78572z" fill="#000000" stroke="#000000" stroke-width="1" stroke-linecap="butt"/><path d="M272.75608,189.68704c5.20511,2.60052 1.32771,9.08676 -5.20959,14.09891c-0.41917,0.32138 -0.84928,0.6367 -1.28863,0.94455c-2.42312,1.69785 -6.52527,2.9142 -8.76418,4.00442c-2.65662,1.29362 -9.59474,1.09499 -9.59474,1.09499c0,0 -5.12471,-0.7308 -7.12247,-1.97616c-1.55896,-0.97181 -3.87753,-4.88098 -3.87753,-4.88098l-1.42857,-2.57143l-2.71429,-1.14286l2.57143,-1.28571l-2.85714,-3.57143l2.85714,-0.14286l-1.28571,-4.71429c0,0 1.49372,4.38385 15.41477,3.81337c13.49193,-0.55289 10.43611,-4.10291 15.66839,-5.23271c3.08296,-0.6657 5.86716,0.6809 7.63113,1.5622z" fill="#ffe5ab" stroke="#000000" stroke-width="1" stroke-linecap="round"/><path d="M279.54828,195.75269c-1.1697,1.92212 -5.09495,2.36361 -8.76727,0.98609c-3.67233,-1.37752 -5.7011,-4.05242 -4.5314,-5.97454c1.1697,-1.92212 5.09495,-2.36361 8.76727,-0.98609c3.67233,1.37752 5.7011,4.05242 4.5314,5.97454z" fill="#000000" stroke="#000000" stroke-width="1" stroke-linecap="butt"/><path d="M245.61323,171.40132c0,0 -7.99572,6.72058 -10.50599,10.78814c-2.62726,4.25713 -4.92258,14.21186 -4.92258,14.21186c0,0 -11.92985,-3.45329 -15.56715,-9.25279c-11.32194,-18.05226 5.99572,-31.03293 5.99572,-31.03293c0,0 2.25096,0.13543 5.95233,1.49459c3.07999,1.13098 7.47186,3.37294 9.56198,4.6509c1.59214,0.97348 5.71899,3.50129 7.8781,5.75217c1.64447,1.71437 1.60759,3.38806 1.60759,3.38806z" fill="#009a2a" stroke="#000000" stroke-width="1" stroke-linecap="round"/><path d="M221.20736,186.70766c-6.32288,-10.18713 -4.27016,-24.01488 5.83444,-24.30633c4.6563,-0.13431 15.85124,9.28692 15.85124,9.28692c0,0 -0.801,0.04913 -6.68924,6.49253c-4.7182,5.16304 -6.73342,13.93483 -6.73342,13.93483c0,0 -5.37313,-0.93981 -8.26302,-5.40795z" fill="#ffe5ab" stroke="#000000" stroke-width="1" stroke-linecap="round"/><path d="M255.3418,205.22037c0,0 -4.40769,2.30561 -9.62048,-1.24942c-4.21304,-2.87322 -4.71285,-6.75058 -4.71285,-6.75058" fill="none" stroke="#000000" stroke-width="1" stroke-linecap="round"/><path d="M170.86667,241.13333v-113.66667h140.33333v113.66667z" fill="none" stroke="none" stroke-width="0" stroke-linecap="butt"/></g></g></svg>